<?xml version="1.0" encoding="UTF-8" standalone="no"?>
<svg
   width="323.96201pt"
   height="128.78pt"
   viewBox="0 0 323.96201 128.78"
   version="1.1"
   id="svg43"
   sodipodi:docname="fig_Yc_rectangle_with_single_rough_edge_parallel.svg"
   inkscape:version="1.3.2 (1:1.3.2+202311252150+091e20ef0f)"
   xmlns:inkscape="http://www.inkscape.org/namespaces/inkscape"
   xmlns:sodipodi="http://sodipodi.sourceforge.net/DTD/sodipodi-0.dtd"
   xmlns="http://www.w3.org/2000/svg"
   xmlns:svg="http://www.w3.org/2000/svg"
   xmlns:rdf="http://www.w3.org/1999/02/22-rdf-syntax-ns#"
   xmlns:cc="http://creativecommons.org/ns#"
   xmlns:dc="http://purl.org/dc/elements/1.1/">
  <sodipodi:namedview
     id="namedview43"
     pagecolor="#ffffff"
     bordercolor="#666666"
     borderopacity="1.0"
     inkscape:showpageshadow="2"
     inkscape:pageopacity="0.0"
     inkscape:pagecheckerboard="0"
     inkscape:deskcolor="#d1d1d1"
     inkscape:document-units="pt"
     inkscape:zoom="1.5535714"
     inkscape:cx="217.88506"
     inkscape:cy="115.86207"
     inkscape:window-width="1920"
     inkscape:window-height="1016"
     inkscape:window-x="1920"
     inkscape:window-y="27"
     inkscape:window-maximized="1"
     inkscape:current-layer="axes_1" />
  <metadata
     id="metadata1">
    <rdf:RDF>
      <cc:Work>
        <dc:type
           rdf:resource="http://purl.org/dc/dcmitype/StillImage" />
        <dc:date>2024-09-29T11:10:14.467117</dc:date>
        <dc:format>image/svg+xml</dc:format>
        <dc:creator>
          <cc:Agent>
            <dc:title>Matplotlib v3.8.4, https://matplotlib.org/</dc:title>
          </cc:Agent>
        </dc:creator>
      </cc:Work>
    </rdf:RDF>
  </metadata>
  <defs
     id="defs1">
    <style
       type="text/css"
       id="style1">*{stroke-linejoin: round; stroke-linecap: butt}</style>
  </defs>
  <g
     id="figure_1"
     transform="translate(-51.707605,-11.551836)">
    <g
       id="axes_1"
       transform="translate(-0.2173946,0.75183594)">
      <g
         id="patch_2" />
      <g
         id="line2d_13">
        <path
           d="m 51.925,82.010957 0.437347,0.0602 0.218674,0.120399 0.32801,0.73396 0.546684,3.202978 0.218674,0.989235 0.218674,0.457692 0.874694,-4.550415 0.109337,-0.799 0.874694,-14.651617 0.328011,-2.019502 0.32801,-2.005308 0.109337,-0.738042 0.32801,1.830425 0.765358,16.597649 0.32801,2.370282 0.218674,0.475936 0.32801,-0.795611 0.546684,-4.148437 0.874695,-7.110494 0.32801,-1.276131 0.218674,-0.347295 0.656021,1.320156 0.437347,-2.416056 0.437347,-2.949944 0.218674,-0.659551 0.218673,-0.173707 0.328011,0.720109 0.437347,2.771461 0.546684,4.333557 0.32801,0.503528 0.437348,-2.724203 0.656021,-5.23011 0.437347,-1.670914 0.218673,-0.369906 0.218674,-0.181114 0.32801,0.359054 0.437348,1.816513 0.437347,3.299662 0.546684,4.09571 0.218673,0.623057 0.328011,-1.996504 0.984031,-11.037296 0.328011,-0.560202 0.32801,1.771235 0.437347,6.464302 0.656021,11.868336 0.218674,1.668012 0.437347,-3.641926 0.32801,-3.00025 0.218674,-0.869562 0.437347,3.311862 0.546684,5.392019 0.328011,0.548856 0.437347,-2.816766 0.546684,-5.494744 0.656021,-8.166451 0.32801,-1.631205 0.328011,0.218913 1.312041,4.501015 0.437347,-0.542907 0.328011,-0.440207 0.218673,-0.0036 0.437348,3.369985 0.656021,7.149889 0.218673,0.916629 0.874695,-4.295854 0.65602,-1.540338 0.218674,-0.443659 0.218674,-0.227879 0.437347,0.457306 0.218673,-0.01608 0.984032,-4.232034 0.32801,0.739689 0.546684,3.904052 1.421379,12.782863 0.65602,10.060806 0.328011,-1.7028 0.546684,-9.286692 0.218674,-1.722837 0.218673,-0.685912 0.328011,0.152471 0.437347,0.895977 0.218673,0.0041 0.437348,-3.470649 0.546684,-5.388828 0.437347,-1.871528 0.656021,-1.146993 0.32801,-0.420783 0.218674,-0.05244 0.437347,1.994612 0.437347,2.334265 0.109337,0.443243 0.32801,-0.65159 0.656021,-3.607407 0.328011,0.0072 1.093368,6.059476 0.218673,0.0083 0.874695,-2.550107 0.109337,-0.10704 0.32801,0.299364 0.32801,-0.709991 1.093369,-6.485778 0.218673,-0.229955 0.328011,1.732653 1.202704,12.61677 0.109337,0.506338 0.328011,-0.614427 0.765359,-3.476522 0.43735,-0.934913 0.43734,-0.495777 0.65602,-0.273059 0.32801,-0.870185 0.76536,-4.024982 0.21867,-0.504241 0.32802,0.36469 0.54668,2.215457 0.43735,1.812359 0.32801,-0.07465 0.65602,-2.12426 0.32801,-0.0053 0.65602,1.008704 0.65602,2.276188 0.76536,3.626694 1.2027,6.452518 0.32801,-0.308793 0.65602,-4.001546 0.32801,-0.06267 0.43735,2.893485 0.98403,9.551378 0.21868,0.06423 0.65602,-29.037557 0.10933,0.601537 0.21868,1.203072 0.32801,7.13443 0.43734,-0.258475 0.21868,-0.230486 0.43735,0.406592 0.32801,-0.04864 0.43734,-0.241953 0.76536,-0.180429 0.32801,0.345876 0.54669,1.269857 0.10933,0.180821 0.32801,-0.608128 0.98403,-4.770082 0.32802,0.232068 0.76535,3.399082 0.21868,0.387334 0.32801,-0.524601 0.43734,-1.954009 1.09337,-6.182168 0.21868,-0.19939 0.32801,-0.0536 0.21867,-0.135631 0.54668,-1.209015 0.76536,-2.214132 0.32801,0.57299 0.43735,3.736893 0.98403,10.598553 0.21867,0.182173 0.76536,-3.695037 0.32801,-3.439432 0.54669,-9.566856 0.10933,0.593128 0.21868,1.186257 0.65602,20.01526 0.65602,3.817547 0.32801,-0.488632 0.65602,-6.754854 0.32801,-0.523373 0.43735,2.033639 0.32801,3.11434 0.32801,5.880073 0.54668,13.625793 0.32801,-6.771813 0.76536,-43.416342 0.21867,-6.845984 0.32801,1.759125 0.65602,25.811634 0.65602,0.829763 0.43735,2.096868 0.21868,0.57718 0.43734,-2.519103 0.32801,-1.919491 0.21868,-0.340903 0.54668,4.438419 0.32801,2.404491 0.21868,0.767387 0.21867,0.194156 0.54668,-1.447939 1.20271,-3.773409 0.54668,-0.186127 0.43735,-1.786249 0.43735,-2.229967 0.10933,-0.440345 0.32801,0.444972 0.43735,3.146788 0.87469,7.659802 0.32802,0.967884 0.32801,-0.164066 0.43734,-2.338757 1.09337,-8.839949 0.21867,-0.55297 0.21868,-0.20923 0.32801,0.640851 0.43735,3.798383 0.76535,12.114524 0.32801,3.234009 0.10934,0.802028 0.32801,-1.835443 0.76536,-13.506291 0.21867,-1.262533 0.76536,2.392005 0.21867,1.67e-4 0.65602,-1.641813 0.43735,-0.355826 0.21868,-0.307311 0.43734,-2.427374 0.98403,-7.270511 0.21868,-0.567729 0.32801,1.427195 0.98403,8.569921 0.43735,1.813174 0.21867,0.341106 0.43735,-1.843127 0.76536,-5.796161 0.21867,-0.987668 0.21867,-0.359799 0.43735,2.518188 0.65602,4.359802 0.32801,0.929592 0.21867,0.203176 0.54669,-0.692198 0.21867,-0.145615 0.21868,0.06572 0.43734,3.084938 0.54669,5.588458 0.32801,0.446114 1.64005,-7.78515 0.54668,-6.73353 0.54669,-6.545275 0.54668,-3.596007 0.32801,-0.966609 0.32801,0.113812 0.98403,1.822746 0.43735,2.225644 0.54668,4.579553 0.98404,8.192134 0.32801,1.109162 0.32801,-1.758763 0.54668,-5.165002 0.10934,-0.741092 0.43734,0.27125 0.21868,0.295102 0.32801,-0.911443 0.76536,-5.394665 0.21867,-0.668288 0.32801,0.187783 0.32801,-0.374978 0.43735,-1.065718 0.21867,-0.106547 0.43735,1.902504 0.87469,4.851753 0.32801,-1.074599 0.98404,-12.364422 0.32801,1.4995 0.65602,9.078526 0.32801,-1.082212 0.54668,-3.537768 0.21867,-0.534486 0.21868,-0.114313 0.65602,0.639398 0.32801,-0.789986 0.76536,-4.765531 0.21867,-0.383863 0.76536,2.686768 0.32801,0.394652 0.21867,0.407481 0.43735,4.483342 0.54668,6.754786 0.32801,0.919875 0.43735,-3.345527 0.54669,-5.581717 0.32801,-1.088162 0.54668,0.414006 0.10934,0.04582 0.65602,-2.197746 0.10933,0.09433 0.21868,0.18865 0.54668,4.977773 0.43735,4.223409 0.43735,1.471273 0.21867,0.160451 0.32801,-0.376431 0.54668,-1.977292 0.32801,-0.957884 0.10934,-0.243088 0.32801,0.915694 0.43735,5.052743 0.54668,7.721309 0.32801,0.629461 0.98403,-6.986713 0.32802,0.557801 0.43734,1.778018 0.21868,0.433016 0.65602,-0.924466 0.43734,-0.06999 0.32801,-0.332012 0.32801,-0.30495 0.21868,0.04949 0.43735,0.655161 0.21867,0.05191 0.87469,-2.501457 0.21868,-0.123396 0.21867,0.03849 0.32801,-0.85306 0.54669,-5.304141 0.43734,-4.132017 0.43735,-1.492992 0.32801,-0.437034 0.21867,-0.136369 0.32801,1.243763 0.54669,8.277707 0.54668,8.201709 0.21868,1.69117 0.32801,-0.585895 0.65602,-4.60451 0.32801,0.623814 0.32801,-2.155573 0.54668,-11.902389 0.10934,-1.702795 0.32801,4.579458 0.87469,24.589463 0.10934,0.867978 0.65602,-22.371518 0.43735,-1.56527 0.32801,-0.668438 0.43735,-0.912777 0.21867,-0.201661 0.21867,-0.10116 0.32801,0.34358 0.43735,2.26557 0.65602,4.200025 0.54669,2.363093 0.65602,6.38364 0.32801,0.171992 0.65602,-3.414624 0.76536,-0.719748 0.21867,-0.688122 0.87469,-6.137921 0.21868,-0.634344 0.43734,-0.836999 0.54669,-1.13186 0.21867,-0.07455 0.43735,0.929747 0.54668,1.955527 0.32801,1.041743 0.32801,-0.340348 0.98404,-4.723677 0.54668,-0.987872 0.10934,-0.119096 0.32801,0.221209 0.43735,1.381414 0.54668,2.776173 0.76536,4.268688 0.54668,1.702601 0.32801,0.822815 0.32801,-0.373405 0.98403,-7.241368 0.32801,0.01071 0.32801,0.345548 0.32801,-0.39289 0.65602,-1.626199 0.32801,-0.606297 0.32801,2.017901 0.54669,7.139343 0.10934,0.896804 0.32801,-0.128284 0.43734,1.252197 1.42138,5.75251 0.10934,0.06351 0.54668,-1.450627 0.10934,-0.205962 0.32801,0.535922 0.32801,-3.681052 0.76536,-22.517412 0.21867,-1.085384 0.65602,15.223 0.65602,0.627111 0.43735,4.033841 0.65602,9.698928 0.8747,17.132571 0.10933,-0.55972 0.21868,-1.11942 0.87469,-39.011429 0.43735,-9.142877 0.32801,1.752102 0.54668,13.665575 0.21868,2.135274 0.32801,0.384708 0.21867,0.375418 0.65602,4.81278 0.32801,-0.706831 0.8747,-8.949248 0.21867,-0.831503 0.54668,-0.797126 0.65602,-0.784399 0.32801,0.210101 0.43735,1.753599 0.65602,3.694625 0.21868,0.415454 0.65602,-1.621702 0.43734,1.529243 0.32801,1.159065 0.21868,0.159855 0.32801,-0.855375 0.32801,0.344881 0.54668,4.905181 0.21868,1.707719 0.21867,1.083992 0.43735,-2.309235 0.32801,-1.901734 0.21867,-0.576195 0.32801,1.067288 0.8747,5.47202 0.10933,0.419866 0.32801,-1.186983 1.31205,-14.232364 0.43734,-0.74034 0.32801,0.07196 0.32801,0.299308 0.21868,0.323215 0.43734,2.616407 0.98404,8.828224 0.21867,0.157095 0.43735,-3.276399 0.43734,-6.118173 0.43735,-5.882129 0.32801,-1.259725 0.32801,1.097426 0.65602,4.115767 0.32801,0.163198 0.98403,-2.435801 0.65602,-2.789645 0.32802,-0.01367 0.87469,2.509897 1.64005,5.454117 0.43735,2.081238 0.32801,0.182861 0.65602,-2.352882 1.31204,-4.865633 0.32801,1.216293 0.54669,6.111454 0.43734,5.013848 0.32801,0.351729 1.31205,-8.13975 0.32801,-1.02948 0.32801,0.649273 0.98403,6.083188 0.65602,1.550841 0.32801,-0.200494 0.54668,-4.217697 0.21868,-1.530667 0.21867,-0.982028 0.32801,2.15458 1.64005,27.458777 0.32801,3.278952 0.32801,-1.283658 0.76536,-8.341981 0.21868,-1.048331 0.32801,0.0637 0.32801,1.234827 0.32801,2.784317 0.32801,-4.180462 0.65602,-28.079334 0.32801,-1.90901 0.43735,1.644708 0.87469,4.441859 0.32801,-0.127811 0.32801,0.252866 0.43735,4.775843 0.65602,8.993553 0.21867,0.844583 0.65602,-4.629566 0.43735,-0.603402 0.21867,0.0043 0.65602,1.575624 0.32802,-0.550585 0.87469,-4.140487 0.10934,-0.3559 0.32801,0.08881 0.43734,3.588268 0.32802,2.611745 0.21867,0.194521 0.65602,-8.183362 0.32801,1.175915 0.54668,8.663194 0.65602,10.611326 0.43735,4.937812 0.32801,-1.981412 0.65602,-17.148691 0.32801,2.908719 0.54669,9.08796 0.10933,1.293473 0.32801,-1.412724 0.65603,-7.645783 0.76535,-4.234147 0.21868,-0.805395 0.32801,0.282197 0.98403,5.886538 0.32801,-0.103427 0.87469,-2.179349 0.10934,-0.111687 0.43735,1.612809 0.43734,1.926831 0.10934,0.356058 0.32801,-1.056774 0.54669,-7.303032 0.43734,-5.918225 0.43735,-1.958539 0.21867,-0.133037 0.43735,1.81613 0.54669,2.660362 0.32801,-0.101846 1.09336,-3.553965 0.21868,-0.267985 0.32801,0.329144 0.87469,2.365975 0.21868,0.113543 0.21867,-0.06794 0.32801,0.28589 0.54668,2.530784 0.43735,2.02836 0.98403,2.301871 0.32801,-0.56556 0.65602,-3.992253 0.32801,0.07768 1.09337,7.855913 0.54669,0.714187 0.65602,2.507266 0.32801,-0.748813 0.65602,-4.775302 0.32801,-0.01506 0.76536,4.150758 0.21867,-0.01101 0.65602,-3.699391 0.43735,0.111272 0.21867,-0.04438 0.54669,-3.781027 0.65602,-4.799118 0.32801,-1.515244 0.21867,-0.417434 0.21867,-0.0057 0.65602,1.858392 0.65603,3.035349 0.54668,2.3703 0.32801,0.745589 0.43735,0.980423 0.32801,0.826393 0.32801,-0.414253 0.65602,-3.745002 0.32801,0.830278 0.43735,6.260644 0.54668,8.490528 0.32801,-0.7932 0.65602,-6.062044 0.65602,-1.100722 0.43735,-4.129971 0.43735,-4.585737 0.10933,-0.835001 0.32801,0.851171 0.54669,2.828609 0.21867,0.505392 0.21868,0.263369 0.87469,2.245017 0.10934,0.04686 0.32801,-0.437492 0.32801,0.476547 0.43734,2.103724 0.32802,2.671166 0.32801,3.039851 0.21867,1.07575 0.65602,-10.272436 0.10934,0.436131 0.21867,0.872262 1.31204,30.840021 0.32801,3.0519 0.32801,-6.36955 0.54669,-20.174687 0.21867,-3.241129 0.43735,-1.743564 0.10933,-0.504727 0.98404,-9.786475 0.43734,-1.24087 0.21868,-0.137666 0.65602,0.543323 0.65602,-0.765457 0.32801,0.658531 1.09337,7.584803 0.21867,0.135464 0.54668,-3.318571 0.32801,-1.700373 0.21868,-0.597105 0.65602,-0.702883 0.21867,0.03605 0.8747,3.030441 0.10933,0.109011 0.43735,-1.82591 0.8747,-5.930975 0.54668,-3.613315 0.10934,-0.54749 0.32801,0.0986 0.43735,3.130707 0.43734,5.436618 0.65602,8.108434 0.10934,0.533432 0.98403,-16.746633 0.43735,3.553364 0.54668,6.015663 0.54669,2.013904 0.32801,1.156252 0.21867,1.249747 0.32801,2.908101 0.65602,6.860056 0.21867,0.555008 0.43735,-6.020316 0.98403,-16.648784 0.32801,-3.049783 0.21868,-1.153977 0.32801,0.121688 0.54668,3.405596 0.76536,5.335599 0.54668,2.108111 0.21868,0.297196 0.43734,-4.36e-4 0.21868,0.06491 0.54668,0.395607 0.65602,-0.38526 0.43735,1.272579 0.87469,3.56265 0.32802,-0.526421 0.76535,-4.15318 0.32801,-0.327799 0.21868,-0.01353 0.43734,-1.672807 0.54669,-2.879378 0.32801,-0.242396 0.32801,-0.915365 0.32801,0.778547 0.76536,16.258715 0.21867,0.654466 0.65602,-3.867228 0.43735,-1.123462 0.21867,0.0028 0.54669,4.251684 0.21867,1.149077 0.21867,0.217831 0.76536,-6.98546 0.21868,-0.246696 1.42137,8.212326 0.32801,1.569526 0.21868,0.59292 0.43734,-2.179417 0.32801,-2.053772 0.21868,-0.686729 0.32801,2.87524 0.65602,11.664355 0.32801,-1.843814 0.65602,-19.182708 0.32801,-1.449023 0.65602,4.897867 0.32801,-2.151132 0.65602,-10.500474 0.32801,0.211592 0.54669,2.254737 0.21867,0.366681 0.43735,0.136469 0.32801,0.111856 0.10934,0.05447 0.32801,0.943789 0.43734,4.929685 0.76536,12.080071 0.10934,0.9617 0.32801,-0.775494 0.54668,-2.724316 0.21868,-0.454482 0.21867,-0.0832 0.43735,1.604347 0.54668,3.941054 0.54669,3.09214 0.21867,0.487825 0.43735,0.283993 0.43734,0.0854 0.32801,-0.664454 0.54669,-3.125383 0.43734,-3.472197 0.76536,-6.682204 0.32801,-1.173915 0.54669,-0.764709 0.65602,-1.945032 0.32801,0.08863 0.76536,2.575492 0.21867,0.116167 1.64005,-4.031463 0.32801,-0.296787 0.43735,0.446519 0.32801,0.405303 0.10934,0.06146 v 0"
           clip-path="url(#p30d62b45ad)"
           style="fill:none;stroke:#696969;stroke-linecap:square"
           id="path17" />
      </g>
    </g>
    <ellipse
       style="fill:#2b9f2b;fill-opacity:1;stroke:none;stroke-width:0.546511;stroke-dasharray:0.546511, 1.09302;stroke-dashoffset:0;stroke-opacity:1;paint-order:stroke markers fill"
       id="path7"
       cx="131.22461"
       cy="107.06308"
       rx="1.6219094"
       ry="1.4425188" />
    <text
       xml:space="preserve"
       style="font-size:10px;line-height:1.25;font-family:Arial;-inkscape-font-specification:Arial;letter-spacing:0px;word-spacing:0px;fill:#2b9f2b;fill-opacity:1;stroke-width:0.749999"
       x="132.31923"
       y="116.38782"
       id="text11"><tspan
         sodipodi:role="line"
         id="tspan11-8"
         style="font-size:10px;fill:#2b9f2b;fill-opacity:1;stroke-width:0.749999"
         x="132.31923"
         y="116.38782">point of maximum OH<tspan
   style="font-size:10px;baseline-shift:super;fill:#2b9f2b;fill-opacity:1;stroke-width:0.749999"
   id="tspan12-5">-</tspan> excess</tspan></text>
    <path
       style="fill:none;fill-opacity:1;stroke:#2b9f2b;stroke-width:0.576609;stroke-linecap:butt;stroke-linejoin:miter;stroke-dasharray:none;stroke-opacity:1"
       d="M 265.85892,107.44134 132.77691,107.28188"
       id="path12-7" />
    <ellipse
       style="fill:#2b9f2b;fill-opacity:1;stroke:none;stroke-width:0.546511;stroke-linecap:butt;stroke-linejoin:round;stroke-dasharray:0.546511, 1.09302;stroke-dashoffset:0;stroke-opacity:1;paint-order:stroke markers fill"
       id="path7-3"
       cx="132.72255"
       cy="48.621696"
       rx="1.6219094"
       ry="1.4425188" />
    <text
       xml:space="preserve"
       style="font-size:10px;line-height:1.25;font-family:Arial;-inkscape-font-specification:Arial;letter-spacing:0px;word-spacing:0px;fill:#2b9f2b;fill-opacity:1;stroke-width:0.749999;stroke-linecap:butt;stroke-linejoin:round"
       x="133.68527"
       y="45.551003"
       id="text11-6"><tspan
         sodipodi:role="line"
         id="tspan11-8-4"
         style="font-size:10px;fill:#2b9f2b;fill-opacity:1;stroke-width:0.749999"
         x="133.68527"
         y="45.551003">point of minimum OH<tspan
   style="font-size:10px;baseline-shift:super;fill:#2b9f2b;fill-opacity:1;stroke-width:0.749999"
   id="tspan12-5-7">-</tspan> excess</tspan></text>
    <path
       style="fill:none;fill-opacity:1;stroke:#2b9f2b;stroke-width:0.576609;stroke-linecap:butt;stroke-linejoin:miter;stroke-dasharray:none;stroke-opacity:1"
       d="m 267.35686,48.999957 -133.082,-0.15946"
       id="path12-7-9" />
  </g>
  <defs
     id="defs43">
    <clipPath
       id="p30d62b45ad">
      <rect
         x="51.924999"
         y="10.8"
         width="323.96201"
         height="128.78"
         id="rect43" />
    </clipPath>
  </defs>
</svg>
