<?xml version="1.0" encoding="UTF-8" standalone="no"?>
<!DOCTYPE svg PUBLIC "-//W3C//DTD SVG 1.1//EN"
 "http://www.w3.org/Graphics/SVG/1.1/DTD/svg11.dtd">
<!-- Generated by graphviz version 2.43.0 (0)
 -->
<!-- Title: snakemake_dag Pages: 1 -->
<svg width="1341pt" height="2046pt"
 viewBox="0.00 0.00 1341.00 2046.00" xmlns="http://www.w3.org/2000/svg" xmlns:xlink="http://www.w3.org/1999/xlink">
<g id="graph0" class="graph" transform="scale(1 1) rotate(0) translate(4 2042)">
<title>snakemake_dag</title>
<polygon fill="white" stroke="transparent" points="-4,4 -4,-2042 1337,-2042 1337,4 -4,4"/>
<!-- 0 -->
<g id="node1" class="node">
<title>0</title>
<text text-anchor="start" x="705" y="-89.6" font-family="sans" font-weight="bold" font-size="18.00">default</text>
<text text-anchor="start" x="659.5" y="-65.8" font-family="sans" font-size="10.00"> </text>
<text text-anchor="start" x="663.5" y="-65.8" font-family="sans" font-weight="bold" font-size="14.00">↪ input</text>
<text text-anchor="start" x="721.5" y="-65.8" font-family="sans" font-size="10.00"> </text>
<text text-anchor="start" x="659.5" y="-46" font-family="monospace" font-size="10.00">out/all.csv</text>
<text text-anchor="start" x="659.5" y="-28" font-family="monospace" font-size="10.00">out/global_properties_plots</text>
<text text-anchor="start" x="815.5" y="-10" font-family="sans" font-size="10.00"> &#160;</text>
<polygon fill="#ced957" stroke="#ced957" points="653.5,-80 653.5,-80 829.5,-80 829.5,-80 653.5,-80"/>
<polygon fill="#ced957" stroke="#ced957" points="653.5,-22 653.5,-22 829.5,-22 829.5,-22 653.5,-22"/>
<polygon fill="none" stroke="#ced957" stroke-width="2" points="653,-1 653,-109 828,-109 828,-1 653,-1"/>
</g>
<!-- 1 -->
<g id="node2" class="node">
<title>1</title>
<text text-anchor="start" x="672.5" y="-551.6" font-family="sans" font-weight="bold" font-size="18.00">aggregate_all</text>
<text text-anchor="start" x="533.5" y="-527.8" font-family="sans" font-size="10.00"> </text>
<text text-anchor="start" x="537.5" y="-527.8" font-family="sans" font-weight="bold" font-size="14.00">↪ input</text>
<text text-anchor="start" x="595.5" y="-527.8" font-family="sans" font-size="10.00"> </text>
<text text-anchor="start" x="533.5" y="-508" font-family="monospace" font-size="10.00">out/potential_0.005/comparative_properties/comparative_properties.csv</text>
<text text-anchor="start" x="533.5" y="-490" font-family="monospace" font-size="10.00">out/potential_0.01/comparative_properties/comparative_properties.csv</text>
<text text-anchor="start" x="533.5" y="-472" font-family="monospace" font-size="10.00">out/potential_0.02/comparative_properties/comparative_properties.csv</text>
<text text-anchor="start" x="533.5" y="-454" font-family="monospace" font-size="10.00">out/potential_0.05/comparative_properties/comparative_properties.csv</text>
<text text-anchor="start" x="533.5" y="-436" font-family="monospace" font-size="10.00">out/potential_0.08/comparative_properties/comparative_properties.csv</text>
<text text-anchor="start" x="533.5" y="-418" font-family="monospace" font-size="10.00">out/potential_0.1/comparative_properties/comparative_properties.csv</text>
<text text-anchor="start" x="533.5" y="-400" font-family="monospace" font-size="10.00">out/potential_0.12/comparative_properties/comparative_properties.csv</text>
<text text-anchor="start" x="533.5" y="-382" font-family="monospace" font-size="10.00">out/potential_0.14/comparative_properties/comparative_properties.csv</text>
<text text-anchor="start" x="533.5" y="-364" font-family="monospace" font-size="10.00">out/potential_0.16/comparative_properties/comparative_properties.csv</text>
<text text-anchor="start" x="533.5" y="-346" font-family="monospace" font-size="10.00">out/potential_0.18/comparative_properties/comparative_properties.csv</text>
<text text-anchor="start" x="870.5" y="-325.8" font-family="sans" font-size="10.00"> </text>
<text text-anchor="start" x="874.5" y="-325.8" font-family="sans" font-weight="bold" font-size="14.00">output →</text>
<text text-anchor="start" x="944.5" y="-325.8" font-family="sans" font-size="10.00"> </text>
<text text-anchor="start" x="533.5" y="-306" font-family="monospace" font-size="10.00">out/all.csv</text>
<polygon fill="#d96557" stroke="#d96557" points="527.5,-542 527.5,-542 955.5,-542 955.5,-542 527.5,-542"/>
<polygon fill="#d96557" stroke="#d96557" points="527.5,-340 527.5,-340 955.5,-340 955.5,-340 527.5,-340"/>
<polygon fill="none" stroke="#d96557" stroke-width="2" points="527,-297 527,-571 954,-571 954,-297 527,-297"/>
</g>
<!-- 1&#45;&gt;0 -->
<g id="edge1" class="edge">
<title>1&#45;&gt;0</title>
<path fill="none" stroke="grey" stroke-width="2" d="M689.28,-295.78C678.12,-247.98 673.14,-194.25 686.5,-146 689.03,-136.88 692.75,-127.75 697.09,-119"/>
<polygon fill="grey" stroke="grey" stroke-width="2" points="700.25,-120.51 701.8,-110.03 694.05,-117.25 700.25,-120.51"/>
</g>
<!-- 14 -->
<g id="node15" class="node">
<title>14</title>
<text text-anchor="start" x="703.5" y="-239.6" font-family="sans" font-weight="bold" font-size="18.00">plot_global_properties</text>
<text text-anchor="start" x="703.5" y="-215.8" font-family="sans" font-size="10.00"> </text>
<text text-anchor="start" x="707.5" y="-215.8" font-family="sans" font-weight="bold" font-size="14.00">↪ input</text>
<text text-anchor="start" x="765.5" y="-215.8" font-family="sans" font-size="10.00"> </text>
<text text-anchor="start" x="703.5" y="-196" font-family="monospace" font-size="10.00">out/all.csv</text>
<text text-anchor="start" x="848.5" y="-175.8" font-family="sans" font-size="10.00"> </text>
<text text-anchor="start" x="852.5" y="-175.8" font-family="sans" font-weight="bold" font-size="14.00">output →</text>
<text text-anchor="start" x="922.5" y="-175.8" font-family="sans" font-size="10.00"> </text>
<text text-anchor="start" x="703.5" y="-156" font-family="monospace" font-size="10.00">out/global_properties_plots</text>
<polygon fill="#d98157" stroke="#d98157" points="697.5,-230 697.5,-230 933.5,-230 933.5,-230 697.5,-230"/>
<polygon fill="#d98157" stroke="#d98157" points="697.5,-190 697.5,-190 933.5,-190 933.5,-190 697.5,-190"/>
<polygon fill="none" stroke="#d98157" stroke-width="2" points="697,-147 697,-259 932,-259 932,-147 697,-147"/>
</g>
<!-- 1&#45;&gt;14 -->
<g id="edge20" class="edge">
<title>1&#45;&gt;14</title>
<path fill="none" stroke="grey" stroke-width="2" d="M784.83,-295.82C787.73,-286.85 790.56,-278.08 793.26,-269.73"/>
<polygon fill="grey" stroke="grey" stroke-width="2" points="796.62,-270.73 796.36,-260.14 789.95,-268.58 796.62,-270.73"/>
</g>
<!-- 2 -->
<g id="node3" class="node">
<title>2</title>
<text text-anchor="start" x="565" y="-863.6" font-family="sans" font-weight="bold" font-size="18.00">aggregate_comparative_properties</text>
<text text-anchor="start" x="407.5" y="-839.8" font-family="sans" font-size="10.00"> </text>
<text text-anchor="start" x="411.5" y="-839.8" font-family="sans" font-weight="bold" font-size="14.00">↪ input</text>
<text text-anchor="start" x="469.5" y="-839.8" font-family="sans" font-size="10.00"> </text>
<text text-anchor="start" x="407.5" y="-820" font-family="monospace" font-size="10.00">out/potential_{potential}/comparative_properties/rectangle_flat_from_parallel.json</text>
<text text-anchor="start" x="407.5" y="-802" font-family="monospace" font-size="10.00">out/potential_{potential}/comparative_properties/rectangle_flat_from_vertical.json</text>
<text text-anchor="start" x="407.5" y="-784" font-family="monospace" font-size="10.00">out/potential_{potential}/comparative_properties/rectangle_with_single_rough_edge_after_10N_friction_test.json</text>
<text text-anchor="start" x="407.5" y="-766" font-family="monospace" font-size="10.00">out/potential_{potential}/comparative_properties/rectangle_with_single_rough_edge_after_4N_friction_test.json</text>
<text text-anchor="start" x="407.5" y="-748" font-family="monospace" font-size="10.00">out/potential_{potential}/comparative_properties/rectangle_with_single_rough_edge_parallel.json</text>
<text text-anchor="start" x="407.5" y="-730" font-family="monospace" font-size="10.00">out/potential_{potential}/comparative_properties/rectangle_with_single_rough_edge_vertical.json</text>
<text text-anchor="start" x="407.5" y="-712" font-family="monospace" font-size="10.00">out/potential_{potential}/comparative_properties/rectangle_with_single_smooth_edge_after_10N_friction_test.json</text>
<text text-anchor="start" x="407.5" y="-694" font-family="monospace" font-size="10.00">out/potential_{potential}/comparative_properties/rectangle_with_single_smooth_edge_after_4N_friction_test.json</text>
<text text-anchor="start" x="407.5" y="-676" font-family="monospace" font-size="10.00">out/potential_{potential}/comparative_properties/rectangle_with_single_smooth_edge_parallel.json</text>
<text text-anchor="start" x="407.5" y="-658" font-family="monospace" font-size="10.00">out/potential_{potential}/comparative_properties/rectangle_with_single_smooth_edge_vertical.json</text>
<text text-anchor="start" x="996.5" y="-637.8" font-family="sans" font-size="10.00"> </text>
<text text-anchor="start" x="1000.5" y="-637.8" font-family="sans" font-weight="bold" font-size="14.00">output →</text>
<text text-anchor="start" x="1070.5" y="-637.8" font-family="sans" font-size="10.00"> </text>
<text text-anchor="start" x="407.5" y="-618" font-family="monospace" font-size="10.00">out/potential_{potential}/comparative_properties/comparative_properties.csv</text>
<polygon fill="#96d957" stroke="#96d957" points="401.5,-854 401.5,-854 1081.5,-854 1081.5,-854 401.5,-854"/>
<polygon fill="#96d957" stroke="#96d957" points="401.5,-652 401.5,-652 1081.5,-652 1081.5,-652 401.5,-652"/>
<polygon fill="none" stroke="#96d957" stroke-width="2" points="401,-609 401,-883 1080,-883 1080,-609 401,-609"/>
</g>
<!-- 2&#45;&gt;1 -->
<g id="edge3" class="edge">
<title>2&#45;&gt;1</title>
<path fill="none" stroke="grey" stroke-width="2" d="M740.5,-607.68C740.5,-599.18 740.5,-590.61 740.5,-582.07"/>
<polygon fill="grey" stroke="grey" stroke-width="2" points="744,-582.07 740.5,-572.07 737,-582.07 744,-582.07"/>
</g>
<!-- 3 -->
<g id="node4" class="node">
<title>3</title>
<text text-anchor="start" x="573.5" y="-1031.6" font-family="sans" font-weight="bold" font-size="18.00">compute_comparative_properties</text>
<text text-anchor="start" x="506.5" y="-1007.8" font-family="sans" font-size="10.00"> </text>
<text text-anchor="start" x="510.5" y="-1007.8" font-family="sans" font-weight="bold" font-size="14.00">↪ input</text>
<text text-anchor="start" x="568.5" y="-1007.8" font-family="sans" font-size="10.00"> </text>
<text text-anchor="start" x="506.5" y="-988" font-family="monospace" font-size="10.00">out/potential_{potential}/derived_properties/rectangle_flat_from_vertical.json</text>
<text text-anchor="start" x="506.5" y="-970" font-family="monospace" font-size="10.00">out/potential_{potential}/derived_properties/{profile}.json</text>
<text text-anchor="start" x="897.5" y="-949.8" font-family="sans" font-size="10.00"> </text>
<text text-anchor="start" x="901.5" y="-949.8" font-family="sans" font-weight="bold" font-size="14.00">output →</text>
<text text-anchor="start" x="971.5" y="-949.8" font-family="sans" font-size="10.00"> </text>
<text text-anchor="start" x="506.5" y="-930" font-family="monospace" font-size="10.00">out/potential_{potential}/comparative_properties/{profile}.json</text>
<polygon fill="#d95757" stroke="#d95757" points="500.5,-1022 500.5,-1022 982.5,-1022 982.5,-1022 500.5,-1022"/>
<polygon fill="#d95757" stroke="#d95757" points="500.5,-964 500.5,-964 982.5,-964 982.5,-964 500.5,-964"/>
<polygon fill="none" stroke="#d95757" stroke-width="2" points="500,-921 500,-1051 981,-1051 981,-921 500,-921"/>
</g>
<!-- 3&#45;&gt;2 -->
<g id="edge4" class="edge">
<title>3&#45;&gt;2</title>
<path fill="none" stroke="grey" stroke-width="2" d="M740.5,-919.97C740.5,-911.77 740.5,-903.13 740.5,-894.28"/>
<polygon fill="grey" stroke="grey" stroke-width="2" points="744,-894.2 740.5,-884.2 737,-894.2 744,-894.2"/>
</g>
<!-- 4 -->
<g id="node5" class="node">
<title>4</title>
<text text-anchor="start" x="598" y="-1253.6" font-family="sans" font-weight="bold" font-size="18.00">compute_derived_properties</text>
<text text-anchor="start" x="563.5" y="-1229.8" font-family="sans" font-size="10.00"> </text>
<text text-anchor="start" x="567.5" y="-1229.8" font-family="sans" font-weight="bold" font-size="14.00">↪ input</text>
<text text-anchor="start" x="625.5" y="-1229.8" font-family="sans" font-size="10.00"> </text>
<text text-anchor="start" x="563.5" y="-1210" font-family="monospace" font-size="10.00">out/potential_{potential}/profile_properties/{profile}.json</text>
<text text-anchor="start" x="563.5" y="-1192" font-family="monospace" font-size="10.00">out/potential_{potential}/surface_charge/{profile}.json</text>
<text text-anchor="start" x="563.5" y="-1174" font-family="monospace" font-size="10.00">out/potential_{potential}/surface_integrals/{profile}.json</text>
<text text-anchor="start" x="563.5" y="-1156" font-family="monospace" font-size="10.00">out/potential_{potential}/volume_integrals/{profile}.json</text>
<text text-anchor="start" x="563.5" y="-1138" font-family="monospace" font-size="10.00">out/roughness_properties/{profile}.json</text>
<text text-anchor="start" x="840.5" y="-1117.8" font-family="sans" font-size="10.00"> </text>
<text text-anchor="start" x="844.5" y="-1117.8" font-family="sans" font-weight="bold" font-size="14.00">output →</text>
<text text-anchor="start" x="914.5" y="-1117.8" font-family="sans" font-size="10.00"> </text>
<text text-anchor="start" x="563.5" y="-1098" font-family="monospace" font-size="10.00">out/potential_{potential}/derived_properties/{profile}.json</text>
<polygon fill="#5765d9" stroke="#5765d9" points="557.5,-1244 557.5,-1244 925.5,-1244 925.5,-1244 557.5,-1244"/>
<polygon fill="#5765d9" stroke="#5765d9" points="557.5,-1132 557.5,-1132 925.5,-1132 925.5,-1132 557.5,-1132"/>
<polygon fill="none" stroke="#5765d9" stroke-width="2" points="557,-1089 557,-1273 924,-1273 924,-1089 557,-1089"/>
</g>
<!-- 4&#45;&gt;3 -->
<g id="edge5" class="edge">
<title>4&#45;&gt;3</title>
<path fill="none" stroke="grey" stroke-width="2" d="M740.5,-1087.74C740.5,-1079.2 740.5,-1070.61 740.5,-1062.24"/>
<polygon fill="grey" stroke="grey" stroke-width="2" points="744,-1062.17 740.5,-1052.17 737,-1062.17 744,-1062.17"/>
</g>
<!-- 5 -->
<g id="node6" class="node">
<title>5</title>
<text text-anchor="start" x="48.5" y="-1403.6" font-family="sans" font-weight="bold" font-size="18.00">compute_surface_charge</text>
<text text-anchor="start" x="7.5" y="-1379.8" font-family="sans" font-size="10.00"> </text>
<text text-anchor="start" x="11.5" y="-1379.8" font-family="sans" font-weight="bold" font-size="14.00">↪ input</text>
<text text-anchor="start" x="69.5" y="-1379.8" font-family="sans" font-size="10.00"> </text>
<text text-anchor="start" x="7.5" y="-1360" font-family="monospace" font-size="10.00">out/potential_{potential}/checkpoint/{profile}.bp</text>
<text text-anchor="start" x="260.5" y="-1339.8" font-family="sans" font-size="10.00"> </text>
<text text-anchor="start" x="264.5" y="-1339.8" font-family="sans" font-weight="bold" font-size="14.00">output →</text>
<text text-anchor="start" x="334.5" y="-1339.8" font-family="sans" font-size="10.00"> </text>
<text text-anchor="start" x="7.5" y="-1320" font-family="monospace" font-size="10.00">out/potential_{potential}/surface_charge/{profile}.json</text>
<polygon fill="#5773d9" stroke="#5773d9" points="1.5,-1394 1.5,-1394 345.5,-1394 345.5,-1394 1.5,-1394"/>
<polygon fill="#5773d9" stroke="#5773d9" points="1.5,-1354 1.5,-1354 345.5,-1354 345.5,-1354 1.5,-1354"/>
<polygon fill="none" stroke="#5773d9" stroke-width="2" points="1,-1311 1,-1423 344,-1423 344,-1311 1,-1311"/>
</g>
<!-- 5&#45;&gt;4 -->
<g id="edge8" class="edge">
<title>5&#45;&gt;4</title>
<path fill="none" stroke="grey" stroke-width="2" d="M345.23,-1310.04C408.69,-1289.49 480.96,-1266.08 546.19,-1244.95"/>
<polygon fill="grey" stroke="grey" stroke-width="2" points="547.33,-1248.26 555.76,-1241.84 545.17,-1241.6 547.33,-1248.26"/>
</g>
<!-- 6 -->
<g id="node7" class="node">
<title>6</title>
<text text-anchor="start" x="421.5" y="-1721.6" font-family="sans" font-weight="bold" font-size="18.00">solve</text>
<text text-anchor="start" x="300.5" y="-1697.8" font-family="sans" font-size="10.00"> </text>
<text text-anchor="start" x="304.5" y="-1697.8" font-family="sans" font-weight="bold" font-size="14.00">↪ input</text>
<text text-anchor="start" x="362.5" y="-1697.8" font-family="sans" font-size="10.00"> </text>
<text text-anchor="start" x="300.5" y="-1678" font-family="monospace" font-size="10.00">out/meshes/{profile}.msh</text>
<text text-anchor="start" x="517.5" y="-1657.8" font-family="sans" font-size="10.00"> </text>
<text text-anchor="start" x="521.5" y="-1657.8" font-family="sans" font-weight="bold" font-size="14.00">output →</text>
<text text-anchor="start" x="591.5" y="-1657.8" font-family="sans" font-size="10.00"> </text>
<text text-anchor="start" x="300.5" y="-1638" font-family="monospace" font-size="10.00">out/potential_{potential}/checkpoint/{profile}.bp</text>
<polygon fill="#d9b957" stroke="#d9b957" points="294.5,-1712 294.5,-1712 602.5,-1712 602.5,-1712 294.5,-1712"/>
<polygon fill="#d9b957" stroke="#d9b957" points="294.5,-1672 294.5,-1672 602.5,-1672 602.5,-1672 294.5,-1672"/>
<polygon fill="none" stroke="#d9b957" stroke-width="2" points="294,-1629 294,-1741 601,-1741 601,-1629 294,-1629"/>
</g>
<!-- 6&#45;&gt;5 -->
<g id="edge11" class="edge">
<title>6&#45;&gt;5</title>
<path fill="none" stroke="grey" stroke-width="2" d="M292.91,-1654.24C229.37,-1638.59 166.24,-1617.35 147.5,-1592 114.13,-1546.87 126.01,-1481.99 142.9,-1433.66"/>
<polygon fill="grey" stroke="grey" stroke-width="2" points="146.2,-1434.82 146.33,-1424.23 139.62,-1432.43 146.2,-1434.82"/>
</g>
<!-- 9 -->
<g id="node10" class="node">
<title>9</title>
<text text-anchor="start" x="202" y="-1562.6" font-family="sans" font-weight="bold" font-size="18.00">compute_volume_integrals</text>
<text text-anchor="start" x="164.5" y="-1538.8" font-family="sans" font-size="10.00"> </text>
<text text-anchor="start" x="168.5" y="-1538.8" font-family="sans" font-weight="bold" font-size="14.00">↪ input</text>
<text text-anchor="start" x="226.5" y="-1538.8" font-family="sans" font-size="10.00"> </text>
<text text-anchor="start" x="164.5" y="-1519" font-family="monospace" font-size="10.00">out/potential_{potential}/checkpoint/{profile}.bp</text>
<text text-anchor="start" x="429.5" y="-1498.8" font-family="sans" font-size="10.00"> </text>
<text text-anchor="start" x="433.5" y="-1498.8" font-family="sans" font-weight="bold" font-size="14.00">output →</text>
<text text-anchor="start" x="503.5" y="-1498.8" font-family="sans" font-size="10.00"> </text>
<text text-anchor="start" x="164.5" y="-1479" font-family="monospace" font-size="10.00">out/potential_{potential}/volume_integrals/{profile}.json</text>
<polygon fill="#d97357" stroke="#d97357" points="158.5,-1553 158.5,-1553 514.5,-1553 514.5,-1553 158.5,-1553"/>
<polygon fill="#d97357" stroke="#d97357" points="158.5,-1513 158.5,-1513 514.5,-1513 514.5,-1513 158.5,-1513"/>
<polygon fill="none" stroke="#d97357" stroke-width="2" points="158,-1470 158,-1582 513,-1582 513,-1470 158,-1470"/>
</g>
<!-- 6&#45;&gt;9 -->
<g id="edge14" class="edge">
<title>6&#45;&gt;9</title>
<path fill="none" stroke="grey" stroke-width="2" d="M407.38,-1627.76C398.97,-1615.97 390.03,-1603.44 381.42,-1591.37"/>
<polygon fill="grey" stroke="grey" stroke-width="2" points="384.18,-1589.22 375.53,-1583.11 378.48,-1593.28 384.18,-1589.22"/>
</g>
<!-- 13 -->
<g id="node14" class="node">
<title>13</title>
<text text-anchor="start" x="606.5" y="-1571.6" font-family="sans" font-weight="bold" font-size="18.00">compute_surface_integrals</text>
<text text-anchor="start" x="539.5" y="-1547.8" font-family="sans" font-size="10.00"> </text>
<text text-anchor="start" x="543.5" y="-1547.8" font-family="sans" font-weight="bold" font-size="14.00">↪ input</text>
<text text-anchor="start" x="601.5" y="-1547.8" font-family="sans" font-size="10.00"> </text>
<text text-anchor="start" x="539.5" y="-1528" font-family="monospace" font-size="10.00">out/meshes/{profile}.msh</text>
<text text-anchor="start" x="539.5" y="-1510" font-family="monospace" font-size="10.00">out/potential_{potential}/checkpoint/{profile}.bp</text>
<text text-anchor="start" x="864.5" y="-1489.8" font-family="sans" font-size="10.00"> </text>
<text text-anchor="start" x="868.5" y="-1489.8" font-family="sans" font-weight="bold" font-size="14.00">output →</text>
<text text-anchor="start" x="938.5" y="-1489.8" font-family="sans" font-size="10.00"> </text>
<text text-anchor="start" x="539.5" y="-1470" font-family="monospace" font-size="10.00">out/potential_{potential}/surface_integrals/{profile}_integrals.csv</text>
<polygon fill="#7ad957" stroke="#7ad957" points="533.5,-1562 533.5,-1562 949.5,-1562 949.5,-1562 533.5,-1562"/>
<polygon fill="#7ad957" stroke="#7ad957" points="533.5,-1504 533.5,-1504 949.5,-1504 949.5,-1504 533.5,-1504"/>
<polygon fill="none" stroke="#7ad957" stroke-width="2" points="533,-1461 533,-1591 948,-1591 948,-1461 533,-1461"/>
</g>
<!-- 6&#45;&gt;13 -->
<g id="edge19" class="edge">
<title>6&#45;&gt;13</title>
<path fill="none" stroke="grey" stroke-width="2" d="M552.04,-1627.98C570.85,-1617.9 590.67,-1607.28 610.11,-1596.87"/>
<polygon fill="grey" stroke="grey" stroke-width="2" points="611.85,-1599.91 619.01,-1592.1 608.54,-1593.74 611.85,-1599.91"/>
</g>
<!-- 7 -->
<g id="node8" class="node">
<title>7</title>
<text text-anchor="start" x="713.5" y="-1889.6" font-family="sans" font-weight="bold" font-size="18.00">mesh</text>
<text text-anchor="start" x="629.5" y="-1865.8" font-family="sans" font-size="10.00"> </text>
<text text-anchor="start" x="633.5" y="-1865.8" font-family="sans" font-weight="bold" font-size="14.00">↪ input</text>
<text text-anchor="start" x="691.5" y="-1865.8" font-family="sans" font-size="10.00"> </text>
<text text-anchor="start" x="629.5" y="-1846" font-family="monospace" font-size="10.00">out/profiles/{profile}.csv</text>
<text text-anchor="start" x="774.5" y="-1825.8" font-family="sans" font-size="10.00"> </text>
<text text-anchor="start" x="778.5" y="-1825.8" font-family="sans" font-weight="bold" font-size="14.00">output →</text>
<text text-anchor="start" x="848.5" y="-1825.8" font-family="sans" font-size="10.00"> </text>
<text text-anchor="start" x="629.5" y="-1806" font-family="monospace" font-size="10.00">out/geometries/{profile}.geo_unrolled</text>
<text text-anchor="start" x="629.5" y="-1788" font-family="monospace" font-size="10.00">out/meshes/{profile}.msh</text>
<polygon fill="#57d97a" stroke="#57d97a" points="623.5,-1880 623.5,-1880 859.5,-1880 859.5,-1880 623.5,-1880"/>
<polygon fill="#57d97a" stroke="#57d97a" points="623.5,-1840 623.5,-1840 859.5,-1840 859.5,-1840 623.5,-1840"/>
<polygon fill="none" stroke="#57d97a" stroke-width="2" points="623,-1779 623,-1909 858,-1909 858,-1779 623,-1779"/>
</g>
<!-- 7&#45;&gt;6 -->
<g id="edge12" class="edge">
<title>7&#45;&gt;6</title>
<path fill="none" stroke="grey" stroke-width="2" d="M621.75,-1779.37C601.8,-1768.68 581.14,-1757.61 561.32,-1746.99"/>
<polygon fill="grey" stroke="grey" stroke-width="2" points="562.75,-1743.78 552.28,-1742.15 559.44,-1749.95 562.75,-1743.78"/>
</g>
<!-- 7&#45;&gt;13 -->
<g id="edge18" class="edge">
<title>7&#45;&gt;13</title>
<path fill="none" stroke="grey" stroke-width="2" d="M740.5,-1777.91C740.5,-1726.82 740.5,-1655.63 740.5,-1602.12"/>
<polygon fill="grey" stroke="grey" stroke-width="2" points="744,-1602.01 740.5,-1592.01 737,-1602.01 744,-1602.01"/>
</g>
<!-- 8 -->
<g id="node9" class="node">
<title>8</title>
<text text-anchor="start" x="895" y="-2017.6" font-family="sans" font-weight="bold" font-size="18.00">homogenize</text>
<text text-anchor="start" x="877.5" y="-1996" font-family="sans" font-size="10.00"> &#160;</text>
<text text-anchor="start" x="956.5" y="-1975.8" font-family="sans" font-size="10.00"> </text>
<text text-anchor="start" x="960.5" y="-1975.8" font-family="sans" font-weight="bold" font-size="14.00">output →</text>
<text text-anchor="start" x="1030.5" y="-1975.8" font-family="sans" font-size="10.00"> </text>
<text text-anchor="start" x="877.5" y="-1956" font-family="monospace" font-size="10.00">out/profiles/{profile}.csv</text>
<polygon fill="#57d5d9" stroke="#57d5d9" points="871.5,-2008 871.5,-2008 1041.5,-2008 1041.5,-2008 871.5,-2008"/>
<polygon fill="#57d5d9" stroke="#57d5d9" points="871.5,-1990 871.5,-1990 1041.5,-1990 1041.5,-1990 871.5,-1990"/>
<polygon fill="none" stroke="#57d5d9" stroke-width="2" points="871,-1947 871,-2037 1040,-2037 1040,-1947 871,-1947"/>
</g>
<!-- 8&#45;&gt;7 -->
<g id="edge13" class="edge">
<title>8&#45;&gt;7</title>
<path fill="none" stroke="grey" stroke-width="2" d="M888.95,-1945.8C874.9,-1936.27 859.75,-1925.98 844.7,-1915.76"/>
<polygon fill="grey" stroke="grey" stroke-width="2" points="846.59,-1912.81 836.35,-1910.09 842.65,-1918.6 846.59,-1912.81"/>
</g>
<!-- 10 -->
<g id="node11" class="node">
<title>10</title>
<text text-anchor="start" x="818.5" y="-1721.6" font-family="sans" font-weight="bold" font-size="18.00">compute_profile_properties</text>
<text text-anchor="start" x="778.5" y="-1697.8" font-family="sans" font-size="10.00"> </text>
<text text-anchor="start" x="782.5" y="-1697.8" font-family="sans" font-weight="bold" font-size="14.00">↪ input</text>
<text text-anchor="start" x="840.5" y="-1697.8" font-family="sans" font-size="10.00"> </text>
<text text-anchor="start" x="778.5" y="-1678" font-family="monospace" font-size="10.00">out/profiles/{profile}.csv</text>
<text text-anchor="start" x="1055.5" y="-1657.8" font-family="sans" font-size="10.00"> </text>
<text text-anchor="start" x="1059.5" y="-1657.8" font-family="sans" font-weight="bold" font-size="14.00">output →</text>
<text text-anchor="start" x="1129.5" y="-1657.8" font-family="sans" font-size="10.00"> </text>
<text text-anchor="start" x="778.5" y="-1638" font-family="monospace" font-size="10.00">out/potential_{potential}/profile_properties/{profile}.json</text>
<polygon fill="#d98f57" stroke="#d98f57" points="772.5,-1712 772.5,-1712 1140.5,-1712 1140.5,-1712 772.5,-1712"/>
<polygon fill="#d98f57" stroke="#d98f57" points="772.5,-1672 772.5,-1672 1140.5,-1672 1140.5,-1672 772.5,-1672"/>
<polygon fill="none" stroke="#d98f57" stroke-width="2" points="772,-1629 772,-1741 1139,-1741 1139,-1629 772,-1629"/>
</g>
<!-- 8&#45;&gt;10 -->
<g id="edge15" class="edge">
<title>8&#45;&gt;10</title>
<path fill="none" stroke="grey" stroke-width="2" d="M955.5,-1946C955.5,-1894.88 955.5,-1810.98 955.5,-1752.35"/>
<polygon fill="grey" stroke="grey" stroke-width="2" points="959,-1752.08 955.5,-1742.08 952,-1752.08 959,-1752.08"/>
</g>
<!-- 11 -->
<g id="node12" class="node">
<title>11</title>
<text text-anchor="start" x="1011.5" y="-1403.6" font-family="sans" font-weight="bold" font-size="18.00">compute_roughness_properties</text>
<text text-anchor="start" x="1011.5" y="-1379.8" font-family="sans" font-size="10.00"> </text>
<text text-anchor="start" x="1015.5" y="-1379.8" font-family="sans" font-weight="bold" font-size="14.00">↪ input</text>
<text text-anchor="start" x="1073.5" y="-1379.8" font-family="sans" font-size="10.00"> </text>
<text text-anchor="start" x="1011.5" y="-1360" font-family="monospace" font-size="10.00">out/profiles/{profile}.csv</text>
<text text-anchor="start" x="1248.5" y="-1339.8" font-family="sans" font-size="10.00"> </text>
<text text-anchor="start" x="1252.5" y="-1339.8" font-family="sans" font-weight="bold" font-size="14.00">output →</text>
<text text-anchor="start" x="1322.5" y="-1339.8" font-family="sans" font-size="10.00"> </text>
<text text-anchor="start" x="1011.5" y="-1320" font-family="monospace" font-size="10.00">out/roughness_properties/{profile}.json</text>
<polygon fill="#57d9a4" stroke="#57d9a4" points="1005.5,-1394 1005.5,-1394 1333.5,-1394 1333.5,-1394 1005.5,-1394"/>
<polygon fill="#57d9a4" stroke="#57d9a4" points="1005.5,-1354 1005.5,-1354 1333.5,-1354 1333.5,-1354 1005.5,-1354"/>
<polygon fill="none" stroke="#57d9a4" stroke-width="2" points="1005,-1311 1005,-1423 1332,-1423 1332,-1311 1005,-1311"/>
</g>
<!-- 8&#45;&gt;11 -->
<g id="edge16" class="edge">
<title>8&#45;&gt;11</title>
<path fill="none" stroke="grey" stroke-width="2" d="M1004.56,-1945.95C1051.06,-1899.81 1118.16,-1823.5 1148.5,-1742 1186.55,-1639.8 1183.33,-1510.98 1176.58,-1434.29"/>
<polygon fill="grey" stroke="grey" stroke-width="2" points="1180.06,-1433.92 1175.65,-1424.28 1173.09,-1434.56 1180.06,-1433.92"/>
</g>
<!-- 9&#45;&gt;4 -->
<g id="edge6" class="edge">
<title>9&#45;&gt;4</title>
<path fill="none" stroke="grey" stroke-width="2" d="M376.12,-1468.86C411.38,-1422.63 465.6,-1357.24 522.5,-1310 535.13,-1299.51 548.73,-1289.36 562.73,-1279.66"/>
<polygon fill="grey" stroke="grey" stroke-width="2" points="564.74,-1282.53 571.02,-1274 560.79,-1276.75 564.74,-1282.53"/>
</g>
<!-- 10&#45;&gt;4 -->
<g id="edge7" class="edge">
<title>10&#45;&gt;4</title>
<path fill="none" stroke="grey" stroke-width="2" d="M972.16,-1627.97C991.66,-1550.78 1014.58,-1409.94 957.5,-1310 950.6,-1297.93 942.08,-1286.88 932.43,-1276.79"/>
<polygon fill="grey" stroke="grey" stroke-width="2" points="934.77,-1274.18 925.21,-1269.61 929.83,-1279.14 934.77,-1274.18"/>
</g>
<!-- 11&#45;&gt;4 -->
<g id="edge9" class="edge">
<title>11&#45;&gt;4</title>
<path fill="none" stroke="grey" stroke-width="2" d="M1038.05,-1309.92C1005.32,-1295.85 969.5,-1280.45 934.41,-1265.36"/>
<polygon fill="grey" stroke="grey" stroke-width="2" points="935.59,-1262.06 925.02,-1261.33 932.82,-1268.49 935.59,-1262.06"/>
</g>
<!-- 12 -->
<g id="node13" class="node">
<title>12</title>
<text text-anchor="start" x="568" y="-1403.6" font-family="sans" font-weight="bold" font-size="18.00">extract_surface_integrals_extrema</text>
<text text-anchor="start" x="539.5" y="-1379.8" font-family="sans" font-size="10.00"> </text>
<text text-anchor="start" x="543.5" y="-1379.8" font-family="sans" font-weight="bold" font-size="14.00">↪ input</text>
<text text-anchor="start" x="601.5" y="-1379.8" font-family="sans" font-size="10.00"> </text>
<text text-anchor="start" x="539.5" y="-1360" font-family="monospace" font-size="10.00">out/potential_{potential}/surface_integrals/{profile}_integrals.csv</text>
<text text-anchor="start" x="864.5" y="-1339.8" font-family="sans" font-size="10.00"> </text>
<text text-anchor="start" x="868.5" y="-1339.8" font-family="sans" font-weight="bold" font-size="14.00">output →</text>
<text text-anchor="start" x="938.5" y="-1339.8" font-family="sans" font-size="10.00"> </text>
<text text-anchor="start" x="539.5" y="-1320" font-family="monospace" font-size="10.00">out/potential_{potential}/surface_integrals/{profile}.json</text>
<polygon fill="#57d9ce" stroke="#57d9ce" points="533.5,-1394 533.5,-1394 949.5,-1394 949.5,-1394 533.5,-1394"/>
<polygon fill="#57d9ce" stroke="#57d9ce" points="533.5,-1354 533.5,-1354 949.5,-1354 949.5,-1354 533.5,-1354"/>
<polygon fill="none" stroke="#57d9ce" stroke-width="2" points="533,-1311 533,-1423 948,-1423 948,-1311 533,-1311"/>
</g>
<!-- 12&#45;&gt;4 -->
<g id="edge10" class="edge">
<title>12&#45;&gt;4</title>
<path fill="none" stroke="grey" stroke-width="2" d="M740.5,-1309.79C740.5,-1301.67 740.5,-1293.1 740.5,-1284.4"/>
<polygon fill="grey" stroke="grey" stroke-width="2" points="744,-1284.16 740.5,-1274.16 737,-1284.16 744,-1284.16"/>
</g>
<!-- 13&#45;&gt;12 -->
<g id="edge17" class="edge">
<title>13&#45;&gt;12</title>
<path fill="none" stroke="grey" stroke-width="2" d="M740.5,-1459.78C740.5,-1451.4 740.5,-1442.8 740.5,-1434.4"/>
<polygon fill="grey" stroke="grey" stroke-width="2" points="744,-1434.27 740.5,-1424.27 737,-1434.27 744,-1434.27"/>
</g>
<!-- 14&#45;&gt;0 -->
<g id="edge2" class="edge">
<title>14&#45;&gt;0</title>
<path fill="none" stroke="grey" stroke-width="2" d="M786.1,-145.97C781.68,-137.26 777.1,-128.2 772.6,-119.34"/>
<polygon fill="grey" stroke="grey" stroke-width="2" points="775.61,-117.53 767.97,-110.2 769.37,-120.7 775.61,-117.53"/>
</g>
</g>
</svg>
