<?xml version="1.0" encoding="UTF-8" standalone="no"?>
<!DOCTYPE svg PUBLIC "-//W3C//DTD SVG 1.1//EN"
 "http://www.w3.org/Graphics/SVG/1.1/DTD/svg11.dtd">
<!-- Generated by graphviz version 2.43.0 (0)
 -->
<!-- Title: snakemake_dag Pages: 1 -->
<svg width="639pt" height="764pt"
 viewBox="0.00 0.00 638.50 764.00" xmlns="http://www.w3.org/2000/svg" xmlns:xlink="http://www.w3.org/1999/xlink">
<g id="graph0" class="graph" transform="scale(1 1) rotate(0) translate(4 760)">
<title>snakemake_dag</title>
<polygon fill="white" stroke="transparent" points="-4,4 -4,-760 634.5,-760 634.5,4 -4,4"/>
<!-- 0 -->
<g id="node1" class="node">
<title>0</title>
<path fill="none" stroke="#56d8a2" stroke-width="2" d="M326.5,-36C326.5,-36 296.5,-36 296.5,-36 290.5,-36 284.5,-30 284.5,-24 284.5,-24 284.5,-12 284.5,-12 284.5,-6 290.5,0 296.5,0 296.5,0 326.5,0 326.5,0 332.5,0 338.5,-6 338.5,-12 338.5,-12 338.5,-24 338.5,-24 338.5,-30 332.5,-36 326.5,-36"/>
<text text-anchor="middle" x="311.5" y="-15.5" font-family="sans" font-size="10.00">default</text>
</g>
<!-- 1 -->
<g id="node2" class="node">
<title>1</title>
<path fill="none" stroke="#56d88a" stroke-width="2" d="M341,-180C341,-180 282,-180 282,-180 276,-180 270,-174 270,-168 270,-168 270,-156 270,-156 270,-150 276,-144 282,-144 282,-144 341,-144 341,-144 347,-144 353,-150 353,-156 353,-156 353,-168 353,-168 353,-174 347,-180 341,-180"/>
<text text-anchor="middle" x="311.5" y="-159.5" font-family="sans" font-size="10.00">aggregate_all</text>
</g>
<!-- 1&#45;&gt;0 -->
<g id="edge2" class="edge">
<title>1&#45;&gt;0</title>
<path fill="none" stroke="grey" stroke-width="2" d="M300.45,-143.61C294.76,-133.62 288.42,-120.58 285.5,-108 281.88,-92.41 281.88,-87.59 285.5,-72 287.6,-62.96 291.47,-53.68 295.59,-45.47"/>
<polygon fill="grey" stroke="grey" stroke-width="2" points="298.81,-46.86 300.45,-36.39 292.64,-43.55 298.81,-46.86"/>
</g>
<!-- 14 -->
<g id="node15" class="node">
<title>14</title>
<path fill="none" stroke="#97d856" stroke-width="2" d="M408,-108C408,-108 307,-108 307,-108 301,-108 295,-102 295,-96 295,-96 295,-84 295,-84 295,-78 301,-72 307,-72 307,-72 408,-72 408,-72 414,-72 420,-78 420,-84 420,-84 420,-96 420,-96 420,-102 414,-108 408,-108"/>
<text text-anchor="middle" x="357.5" y="-87.5" font-family="sans" font-size="10.00">plot_global_properties</text>
</g>
<!-- 1&#45;&gt;14 -->
<g id="edge20" class="edge">
<title>1&#45;&gt;14</title>
<path fill="none" stroke="grey" stroke-width="2" d="M322.87,-143.7C328.22,-135.56 334.7,-125.69 340.61,-116.7"/>
<polygon fill="grey" stroke="grey" stroke-width="2" points="343.69,-118.38 346.26,-108.1 337.84,-114.54 343.69,-118.38"/>
</g>
<!-- 2 -->
<g id="node3" class="node">
<title>2</title>
<path fill="none" stroke="#a7d856" stroke-width="2" d="M393.5,-252C393.5,-252 229.5,-252 229.5,-252 223.5,-252 217.5,-246 217.5,-240 217.5,-240 217.5,-228 217.5,-228 217.5,-222 223.5,-216 229.5,-216 229.5,-216 393.5,-216 393.5,-216 399.5,-216 405.5,-222 405.5,-228 405.5,-228 405.5,-240 405.5,-240 405.5,-246 399.5,-252 393.5,-252"/>
<text text-anchor="middle" x="311.5" y="-231.5" font-family="sans" font-size="10.00">aggregate_comparative_properties</text>
</g>
<!-- 2&#45;&gt;1 -->
<g id="edge3" class="edge">
<title>2&#45;&gt;1</title>
<path fill="none" stroke="grey" stroke-width="2" d="M311.5,-215.7C311.5,-207.98 311.5,-198.71 311.5,-190.11"/>
<polygon fill="grey" stroke="grey" stroke-width="2" points="315,-190.1 311.5,-180.1 308,-190.1 315,-190.1"/>
</g>
<!-- 3 -->
<g id="node4" class="node">
<title>3</title>
<path fill="none" stroke="#56a9d8" stroke-width="2" d="M390,-324C390,-324 233,-324 233,-324 227,-324 221,-318 221,-312 221,-312 221,-300 221,-300 221,-294 227,-288 233,-288 233,-288 390,-288 390,-288 396,-288 402,-294 402,-300 402,-300 402,-312 402,-312 402,-318 396,-324 390,-324"/>
<text text-anchor="middle" x="311.5" y="-303.5" font-family="sans" font-size="10.00">compute_comparative_properties</text>
</g>
<!-- 3&#45;&gt;2 -->
<g id="edge4" class="edge">
<title>3&#45;&gt;2</title>
<path fill="none" stroke="grey" stroke-width="2" d="M311.5,-287.7C311.5,-279.98 311.5,-270.71 311.5,-262.11"/>
<polygon fill="grey" stroke="grey" stroke-width="2" points="315,-262.1 311.5,-252.1 308,-262.1 315,-262.1"/>
</g>
<!-- 4 -->
<g id="node5" class="node">
<title>4</title>
<path fill="none" stroke="#68d856" stroke-width="2" d="M377.5,-396C377.5,-396 245.5,-396 245.5,-396 239.5,-396 233.5,-390 233.5,-384 233.5,-384 233.5,-372 233.5,-372 233.5,-366 239.5,-360 245.5,-360 245.5,-360 377.5,-360 377.5,-360 383.5,-360 389.5,-366 389.5,-372 389.5,-372 389.5,-384 389.5,-384 389.5,-390 383.5,-396 377.5,-396"/>
<text text-anchor="middle" x="311.5" y="-375.5" font-family="sans" font-size="10.00">compute_derived_properties</text>
</g>
<!-- 4&#45;&gt;3 -->
<g id="edge5" class="edge">
<title>4&#45;&gt;3</title>
<path fill="none" stroke="grey" stroke-width="2" d="M311.5,-359.7C311.5,-351.98 311.5,-342.71 311.5,-334.11"/>
<polygon fill="grey" stroke="grey" stroke-width="2" points="315,-334.1 311.5,-324.1 308,-334.1 315,-334.1"/>
</g>
<!-- 5 -->
<g id="node6" class="node">
<title>5</title>
<path fill="none" stroke="#56d8b1" stroke-width="2" d="M127,-468C127,-468 12,-468 12,-468 6,-468 0,-462 0,-456 0,-456 0,-444 0,-444 0,-438 6,-432 12,-432 12,-432 127,-432 127,-432 133,-432 139,-438 139,-444 139,-444 139,-456 139,-456 139,-462 133,-468 127,-468"/>
<text text-anchor="middle" x="69.5" y="-447.5" font-family="sans" font-size="10.00">compute_surface_charge</text>
</g>
<!-- 5&#45;&gt;4 -->
<g id="edge7" class="edge">
<title>5&#45;&gt;4</title>
<path fill="none" stroke="grey" stroke-width="2" d="M128.39,-431.97C162.79,-422.01 206.38,-409.41 242.4,-398.99"/>
<polygon fill="grey" stroke="grey" stroke-width="2" points="243.71,-402.25 252.35,-396.11 241.77,-395.53 243.71,-402.25"/>
</g>
<!-- 6 -->
<g id="node7" class="node">
<title>6</title>
<path fill="none" stroke="#afd856" stroke-width="2" d="M234.5,-612C234.5,-612 204.5,-612 204.5,-612 198.5,-612 192.5,-606 192.5,-600 192.5,-600 192.5,-588 192.5,-588 192.5,-582 198.5,-576 204.5,-576 204.5,-576 234.5,-576 234.5,-576 240.5,-576 246.5,-582 246.5,-588 246.5,-588 246.5,-600 246.5,-600 246.5,-606 240.5,-612 234.5,-612"/>
<text text-anchor="middle" x="219.5" y="-591.5" font-family="sans" font-size="10.00">solve</text>
</g>
<!-- 6&#45;&gt;5 -->
<g id="edge11" class="edge">
<title>6&#45;&gt;5</title>
<path fill="none" stroke="grey" stroke-width="2" d="M192.46,-590.96C160.07,-586.95 106.76,-575.1 79.5,-540 66.04,-522.67 64.38,-497.41 65.6,-478.22"/>
<polygon fill="grey" stroke="grey" stroke-width="2" points="69.11,-478.29 66.55,-468.01 62.14,-477.64 69.11,-478.29"/>
</g>
<!-- 9 -->
<g id="node10" class="node">
<title>9</title>
<path fill="none" stroke="#56d87b" stroke-width="2" d="M226,-540C226,-540 101,-540 101,-540 95,-540 89,-534 89,-528 89,-528 89,-516 89,-516 89,-510 95,-504 101,-504 101,-504 226,-504 226,-504 232,-504 238,-510 238,-516 238,-516 238,-528 238,-528 238,-534 232,-540 226,-540"/>
<text text-anchor="middle" x="163.5" y="-519.5" font-family="sans" font-size="10.00">compute_volume_integrals</text>
</g>
<!-- 6&#45;&gt;9 -->
<g id="edge14" class="edge">
<title>6&#45;&gt;9</title>
<path fill="none" stroke="grey" stroke-width="2" d="M205.66,-575.7C199.01,-567.39 190.92,-557.28 183.61,-548.14"/>
<polygon fill="grey" stroke="grey" stroke-width="2" points="186.16,-545.73 177.18,-540.1 180.7,-550.1 186.16,-545.73"/>
</g>
<!-- 13 -->
<g id="node14" class="node">
<title>13</title>
<path fill="none" stroke="#56c9d8" stroke-width="2" d="M393,-540C393,-540 268,-540 268,-540 262,-540 256,-534 256,-528 256,-528 256,-516 256,-516 256,-510 262,-504 268,-504 268,-504 393,-504 393,-504 399,-504 405,-510 405,-516 405,-516 405,-528 405,-528 405,-534 399,-540 393,-540"/>
<text text-anchor="middle" x="330.5" y="-519.5" font-family="sans" font-size="10.00">compute_surface_integrals</text>
</g>
<!-- 6&#45;&gt;13 -->
<g id="edge18" class="edge">
<title>6&#45;&gt;13</title>
<path fill="none" stroke="grey" stroke-width="2" d="M246.65,-575.88C261.03,-566.81 278.88,-555.55 294.41,-545.76"/>
<polygon fill="grey" stroke="grey" stroke-width="2" points="296.65,-548.48 303.24,-540.19 292.92,-542.56 296.65,-548.48"/>
</g>
<!-- 7 -->
<g id="node8" class="node">
<title>7</title>
<path fill="none" stroke="#d86656" stroke-width="2" d="M344.5,-684C344.5,-684 314.5,-684 314.5,-684 308.5,-684 302.5,-678 302.5,-672 302.5,-672 302.5,-660 302.5,-660 302.5,-654 308.5,-648 314.5,-648 314.5,-648 344.5,-648 344.5,-648 350.5,-648 356.5,-654 356.5,-660 356.5,-660 356.5,-672 356.5,-672 356.5,-678 350.5,-684 344.5,-684"/>
<text text-anchor="middle" x="329.5" y="-663.5" font-family="sans" font-size="10.00">mesh</text>
</g>
<!-- 7&#45;&gt;6 -->
<g id="edge12" class="edge">
<title>7&#45;&gt;6</title>
<path fill="none" stroke="grey" stroke-width="2" d="M302.59,-647.88C288.34,-638.81 270.65,-627.55 255.26,-617.76"/>
<polygon fill="grey" stroke="grey" stroke-width="2" points="256.83,-614.61 246.51,-612.19 253.07,-620.51 256.83,-614.61"/>
</g>
<!-- 7&#45;&gt;13 -->
<g id="edge19" class="edge">
<title>7&#45;&gt;13</title>
<path fill="none" stroke="grey" stroke-width="2" d="M329.62,-647.87C329.79,-623.67 330.1,-579.21 330.31,-550.39"/>
<polygon fill="grey" stroke="grey" stroke-width="2" points="333.81,-550.21 330.38,-540.19 326.81,-550.16 333.81,-550.21"/>
</g>
<!-- 8 -->
<g id="node9" class="node">
<title>8</title>
<path fill="none" stroke="#5673d8" stroke-width="2" d="M459,-756C459,-756 406,-756 406,-756 400,-756 394,-750 394,-744 394,-744 394,-732 394,-732 394,-726 400,-720 406,-720 406,-720 459,-720 459,-720 465,-720 471,-726 471,-732 471,-732 471,-744 471,-744 471,-750 465,-756 459,-756"/>
<text text-anchor="middle" x="432.5" y="-735.5" font-family="sans" font-size="10.00">homogenize</text>
</g>
<!-- 8&#45;&gt;7 -->
<g id="edge13" class="edge">
<title>8&#45;&gt;7</title>
<path fill="none" stroke="grey" stroke-width="2" d="M407.3,-719.88C394.09,-710.89 377.71,-699.76 363.39,-690.03"/>
<polygon fill="grey" stroke="grey" stroke-width="2" points="365.03,-686.92 354.79,-684.19 361.1,-692.71 365.03,-686.92"/>
</g>
<!-- 10 -->
<g id="node11" class="node">
<title>10</title>
<path fill="none" stroke="#56d8c1" stroke-width="2" d="M495.5,-612C495.5,-612 369.5,-612 369.5,-612 363.5,-612 357.5,-606 357.5,-600 357.5,-600 357.5,-588 357.5,-588 357.5,-582 363.5,-576 369.5,-576 369.5,-576 495.5,-576 495.5,-576 501.5,-576 507.5,-582 507.5,-588 507.5,-588 507.5,-600 507.5,-600 507.5,-606 501.5,-612 495.5,-612"/>
<text text-anchor="middle" x="432.5" y="-591.5" font-family="sans" font-size="10.00">compute_profile_properties</text>
</g>
<!-- 8&#45;&gt;10 -->
<g id="edge15" class="edge">
<title>8&#45;&gt;10</title>
<path fill="none" stroke="grey" stroke-width="2" d="M432.5,-719.87C432.5,-695.67 432.5,-651.21 432.5,-622.39"/>
<polygon fill="grey" stroke="grey" stroke-width="2" points="436,-622.19 432.5,-612.19 429,-622.19 436,-622.19"/>
</g>
<!-- 11 -->
<g id="node12" class="node">
<title>11</title>
<path fill="none" stroke="#56d8d8" stroke-width="2" d="M618.5,-468C618.5,-468 472.5,-468 472.5,-468 466.5,-468 460.5,-462 460.5,-456 460.5,-456 460.5,-444 460.5,-444 460.5,-438 466.5,-432 472.5,-432 472.5,-432 618.5,-432 618.5,-432 624.5,-432 630.5,-438 630.5,-444 630.5,-444 630.5,-456 630.5,-456 630.5,-462 624.5,-468 618.5,-468"/>
<text text-anchor="middle" x="545.5" y="-447.5" font-family="sans" font-size="10.00">compute_roughness_properties</text>
</g>
<!-- 8&#45;&gt;11 -->
<g id="edge16" class="edge">
<title>8&#45;&gt;11</title>
<path fill="none" stroke="grey" stroke-width="2" d="M447.58,-719.72C466.75,-696.76 499.42,-654.16 516.5,-612 534.61,-567.3 541.45,-511.07 544.01,-478.26"/>
<polygon fill="grey" stroke="grey" stroke-width="2" points="547.52,-478.31 544.72,-468.09 540.53,-477.82 547.52,-478.31"/>
</g>
<!-- 9&#45;&gt;4 -->
<g id="edge10" class="edge">
<title>9&#45;&gt;4</title>
<path fill="none" stroke="grey" stroke-width="2" d="M168.53,-504C175.03,-484.52 188,-452.64 208.5,-432 221.35,-419.06 238.03,-408.63 254.2,-400.57"/>
<polygon fill="grey" stroke="grey" stroke-width="2" points="256.1,-403.54 263.63,-396.09 253.1,-397.21 256.1,-403.54"/>
</g>
<!-- 10&#45;&gt;4 -->
<g id="edge8" class="edge">
<title>10&#45;&gt;4</title>
<path fill="none" stroke="grey" stroke-width="2" d="M435.36,-575.69C439.59,-544.08 444.05,-476.23 413.5,-432 404.2,-418.54 390.4,-408.26 375.93,-400.51"/>
<polygon fill="grey" stroke="grey" stroke-width="2" points="377.38,-397.33 366.87,-396.01 374.26,-403.6 377.38,-397.33"/>
</g>
<!-- 11&#45;&gt;4 -->
<g id="edge9" class="edge">
<title>11&#45;&gt;4</title>
<path fill="none" stroke="grey" stroke-width="2" d="M488.56,-431.97C455.29,-422.01 413.14,-409.41 378.31,-398.99"/>
<polygon fill="grey" stroke="grey" stroke-width="2" points="379.28,-395.62 368.7,-396.11 377.28,-402.33 379.28,-395.62"/>
</g>
<!-- 12 -->
<g id="node13" class="node">
<title>12</title>
<path fill="none" stroke="#bed856" stroke-width="2" d="M393,-468C393,-468 230,-468 230,-468 224,-468 218,-462 218,-456 218,-456 218,-444 218,-444 218,-438 224,-432 230,-432 230,-432 393,-432 393,-432 399,-432 405,-438 405,-444 405,-444 405,-456 405,-456 405,-462 399,-468 393,-468"/>
<text text-anchor="middle" x="311.5" y="-447.5" font-family="sans" font-size="10.00">extract_surface_integrals_extrema</text>
</g>
<!-- 12&#45;&gt;4 -->
<g id="edge6" class="edge">
<title>12&#45;&gt;4</title>
<path fill="none" stroke="grey" stroke-width="2" d="M311.5,-431.7C311.5,-423.98 311.5,-414.71 311.5,-406.11"/>
<polygon fill="grey" stroke="grey" stroke-width="2" points="315,-406.1 311.5,-396.1 308,-406.1 315,-406.1"/>
</g>
<!-- 13&#45;&gt;12 -->
<g id="edge17" class="edge">
<title>13&#45;&gt;12</title>
<path fill="none" stroke="grey" stroke-width="2" d="M325.8,-503.7C323.69,-495.9 321.14,-486.51 318.78,-477.83"/>
<polygon fill="grey" stroke="grey" stroke-width="2" points="322.14,-476.84 316.14,-468.1 315.38,-478.67 322.14,-476.84"/>
</g>
<!-- 14&#45;&gt;0 -->
<g id="edge1" class="edge">
<title>14&#45;&gt;0</title>
<path fill="none" stroke="grey" stroke-width="2" d="M346.13,-71.7C340.78,-63.56 334.3,-53.69 328.39,-44.7"/>
<polygon fill="grey" stroke="grey" stroke-width="2" points="331.16,-42.54 322.74,-36.1 325.31,-46.38 331.16,-42.54"/>
</g>
</g>
</svg>
