<?xml version="1.0" encoding="UTF-8" standalone="no"?>
<!DOCTYPE svg PUBLIC "-//W3C//DTD SVG 1.1//EN"
 "http://www.w3.org/Graphics/SVG/1.1/DTD/svg11.dtd">
<!-- Generated by graphviz version 2.43.0 (0)
 -->
<!-- Title: snakemake_dag Pages: 1 -->
<svg width="1304pt" height="620pt"
 viewBox="0.00 0.00 1304.00 620.00" xmlns="http://www.w3.org/2000/svg" xmlns:xlink="http://www.w3.org/1999/xlink">
<g id="graph0" class="graph" transform="scale(1 1) rotate(0) translate(4 616)">
<title>snakemake_dag</title>
<polygon fill="white" stroke="transparent" points="-4,4 -4,-616 1300,-616 1300,4 -4,4"/>
<!-- 0 -->
<g id="node1" class="node">
<title>0</title>
<path fill="none" stroke="#d8a456" stroke-width="2" d="M820.5,-36C820.5,-36 790.5,-36 790.5,-36 784.5,-36 778.5,-30 778.5,-24 778.5,-24 778.5,-12 778.5,-12 778.5,-6 784.5,0 790.5,0 790.5,0 820.5,0 820.5,0 826.5,0 832.5,-6 832.5,-12 832.5,-12 832.5,-24 832.5,-24 832.5,-30 826.5,-36 820.5,-36"/>
<text text-anchor="middle" x="805.5" y="-15.5" font-family="sans" font-size="10.00">default</text>
</g>
<!-- 1 -->
<g id="node2" class="node">
<title>1</title>
<path fill="none" stroke="#b6d856" stroke-width="2" d="M263.5,-108C263.5,-108 155.5,-108 155.5,-108 149.5,-108 143.5,-102 143.5,-96 143.5,-96 143.5,-84 143.5,-84 143.5,-78 149.5,-72 155.5,-72 155.5,-72 263.5,-72 263.5,-72 269.5,-72 275.5,-78 275.5,-84 275.5,-84 275.5,-96 275.5,-96 275.5,-102 269.5,-108 263.5,-108"/>
<text text-anchor="middle" x="209.5" y="-87.5" font-family="sans" font-size="10.00">plot_solution_2d_global</text>
</g>
<!-- 1&#45;&gt;0 -->
<g id="edge2" class="edge">
<title>1&#45;&gt;0</title>
<path fill="none" stroke="grey" stroke-width="2" d="M275.75,-74.35C280.39,-73.5 285.01,-72.71 289.5,-72 467.59,-44.01 682.69,-27.39 768.01,-21.47"/>
<polygon fill="grey" stroke="grey" stroke-width="2" points="768.5,-24.94 778.23,-20.77 768.02,-17.96 768.5,-24.94"/>
</g>
<!-- 2 -->
<g id="node3" class="node">
<title>2</title>
<path fill="none" stroke="#56d87b" stroke-width="2" d="M232.5,-180C232.5,-180 186.5,-180 186.5,-180 180.5,-180 174.5,-174 174.5,-168 174.5,-168 174.5,-156 174.5,-156 174.5,-150 180.5,-144 186.5,-144 186.5,-144 232.5,-144 232.5,-144 238.5,-144 244.5,-150 244.5,-156 244.5,-156 244.5,-168 244.5,-168 244.5,-174 238.5,-180 232.5,-180"/>
<text text-anchor="middle" x="209.5" y="-159.5" font-family="sans" font-size="10.00">interpolate</text>
</g>
<!-- 2&#45;&gt;1 -->
<g id="edge14" class="edge">
<title>2&#45;&gt;1</title>
<path fill="none" stroke="grey" stroke-width="2" d="M209.5,-143.7C209.5,-135.98 209.5,-126.71 209.5,-118.11"/>
<polygon fill="grey" stroke="grey" stroke-width="2" points="213,-118.1 209.5,-108.1 206,-118.1 213,-118.1"/>
</g>
<!-- 6 -->
<g id="node7" class="node">
<title>6</title>
<path fill="none" stroke="#78d856" stroke-width="2" d="M113,-108C113,-108 12,-108 12,-108 6,-108 0,-102 0,-96 0,-96 0,-84 0,-84 0,-78 6,-72 12,-72 12,-72 113,-72 113,-72 119,-72 125,-78 125,-84 125,-84 125,-96 125,-96 125,-102 119,-108 113,-108"/>
<text text-anchor="middle" x="62.5" y="-87.5" font-family="sans" font-size="10.00">plot_solution_2d_local</text>
</g>
<!-- 2&#45;&gt;6 -->
<g id="edge18" class="edge">
<title>2&#45;&gt;6</title>
<path fill="none" stroke="grey" stroke-width="2" d="M174.29,-144.23C154.31,-134.72 129.1,-122.71 107.68,-112.51"/>
<polygon fill="grey" stroke="grey" stroke-width="2" points="108.98,-109.26 98.44,-108.12 105.97,-115.58 108.98,-109.26"/>
</g>
<!-- 3 -->
<g id="node4" class="node">
<title>3</title>
<path fill="none" stroke="#56d8d8" stroke-width="2" d="M767.5,-468C767.5,-468 737.5,-468 737.5,-468 731.5,-468 725.5,-462 725.5,-456 725.5,-456 725.5,-444 725.5,-444 725.5,-438 731.5,-432 737.5,-432 737.5,-432 767.5,-432 767.5,-432 773.5,-432 779.5,-438 779.5,-444 779.5,-444 779.5,-456 779.5,-456 779.5,-462 773.5,-468 767.5,-468"/>
<text text-anchor="middle" x="752.5" y="-447.5" font-family="sans" font-size="10.00">solve</text>
</g>
<!-- 3&#45;&gt;2 -->
<g id="edge15" class="edge">
<title>3&#45;&gt;2</title>
<path fill="none" stroke="grey" stroke-width="2" d="M725.46,-434.14C724.12,-433.41 722.8,-432.7 721.5,-432 547.8,-338.75 339.36,-230.3 251.65,-184.82"/>
<polygon fill="grey" stroke="grey" stroke-width="2" points="253.04,-181.6 242.55,-180.11 249.82,-187.82 253.04,-181.6"/>
</g>
<!-- 9 -->
<g id="node10" class="node">
<title>9</title>
<path fill="none" stroke="#56d8b1" stroke-width="2" d="M763,-252C763,-252 638,-252 638,-252 632,-252 626,-246 626,-240 626,-240 626,-228 626,-228 626,-222 632,-216 638,-216 638,-216 763,-216 763,-216 769,-216 775,-222 775,-228 775,-228 775,-240 775,-240 775,-246 769,-252 763,-252"/>
<text text-anchor="middle" x="700.5" y="-231.5" font-family="sans" font-size="10.00">compute_surface_integrals</text>
</g>
<!-- 3&#45;&gt;9 -->
<g id="edge22" class="edge">
<title>3&#45;&gt;9</title>
<path fill="none" stroke="grey" stroke-width="2" d="M739.55,-431.78C732.75,-421.84 724.93,-408.8 720.5,-396 704.93,-351.05 701.2,-295.32 700.46,-262.61"/>
<polygon fill="grey" stroke="grey" stroke-width="2" points="703.96,-262.4 700.32,-252.45 696.96,-262.5 703.96,-262.4"/>
</g>
<!-- 16 -->
<g id="node17" class="node">
<title>16</title>
<path fill="none" stroke="#8fd856" stroke-width="2" d="M867,-396C867,-396 742,-396 742,-396 736,-396 730,-390 730,-384 730,-384 730,-372 730,-372 730,-366 736,-360 742,-360 742,-360 867,-360 867,-360 873,-360 879,-366 879,-372 879,-372 879,-384 879,-384 879,-390 873,-396 867,-396"/>
<text text-anchor="middle" x="804.5" y="-375.5" font-family="sans" font-size="10.00">compute_volume_integrals</text>
</g>
<!-- 3&#45;&gt;16 -->
<g id="edge30" class="edge">
<title>3&#45;&gt;16</title>
<path fill="none" stroke="grey" stroke-width="2" d="M765.35,-431.7C771.53,-423.39 779.04,-413.28 785.82,-404.14"/>
<polygon fill="grey" stroke="grey" stroke-width="2" points="788.64,-406.22 791.79,-396.1 783.02,-402.04 788.64,-406.22"/>
</g>
<!-- 21 -->
<g id="node22" class="node">
<title>21</title>
<path fill="none" stroke="#c6d856" stroke-width="2" d="M1024,-396C1024,-396 909,-396 909,-396 903,-396 897,-390 897,-384 897,-384 897,-372 897,-372 897,-366 903,-360 909,-360 909,-360 1024,-360 1024,-360 1030,-360 1036,-366 1036,-372 1036,-372 1036,-384 1036,-384 1036,-390 1030,-396 1024,-396"/>
<text text-anchor="middle" x="966.5" y="-375.5" font-family="sans" font-size="10.00">compute_surface_charge</text>
</g>
<!-- 3&#45;&gt;21 -->
<g id="edge37" class="edge">
<title>3&#45;&gt;21</title>
<path fill="none" stroke="grey" stroke-width="2" d="M779.6,-440.13C810.84,-429.92 863.18,-412.8 904.54,-399.27"/>
<polygon fill="grey" stroke="grey" stroke-width="2" points="905.84,-402.52 914.26,-396.09 903.67,-395.87 905.84,-402.52"/>
</g>
<!-- 4 -->
<g id="node5" class="node">
<title>4</title>
<path fill="none" stroke="#d8b456" stroke-width="2" d="M767.5,-540C767.5,-540 737.5,-540 737.5,-540 731.5,-540 725.5,-534 725.5,-528 725.5,-528 725.5,-516 725.5,-516 725.5,-510 731.5,-504 737.5,-504 737.5,-504 767.5,-504 767.5,-504 773.5,-504 779.5,-510 779.5,-516 779.5,-516 779.5,-528 779.5,-528 779.5,-534 773.5,-540 767.5,-540"/>
<text text-anchor="middle" x="752.5" y="-519.5" font-family="sans" font-size="10.00">mesh</text>
</g>
<!-- 4&#45;&gt;3 -->
<g id="edge16" class="edge">
<title>4&#45;&gt;3</title>
<path fill="none" stroke="grey" stroke-width="2" d="M752.5,-503.7C752.5,-495.98 752.5,-486.71 752.5,-478.11"/>
<polygon fill="grey" stroke="grey" stroke-width="2" points="756,-478.1 752.5,-468.1 749,-478.1 756,-478.1"/>
</g>
<!-- 4&#45;&gt;9 -->
<g id="edge23" class="edge">
<title>4&#45;&gt;9</title>
<path fill="none" stroke="grey" stroke-width="2" d="M737.54,-503.55C729.96,-493.74 721.37,-480.91 716.5,-468 689.94,-397.55 693.49,-306.71 697.45,-262.13"/>
<polygon fill="grey" stroke="grey" stroke-width="2" points="700.94,-262.37 698.42,-252.08 693.97,-261.7 700.94,-262.37"/>
</g>
<!-- 5 -->
<g id="node6" class="node">
<title>5</title>
<path fill="none" stroke="#56b1d8" stroke-width="2" d="M806,-612C806,-612 753,-612 753,-612 747,-612 741,-606 741,-600 741,-600 741,-588 741,-588 741,-582 747,-576 753,-576 753,-576 806,-576 806,-576 812,-576 818,-582 818,-588 818,-588 818,-600 818,-600 818,-606 812,-612 806,-612"/>
<text text-anchor="middle" x="779.5" y="-591.5" font-family="sans" font-size="10.00">homogenize</text>
</g>
<!-- 5&#45;&gt;4 -->
<g id="edge17" class="edge">
<title>5&#45;&gt;4</title>
<path fill="none" stroke="grey" stroke-width="2" d="M772.83,-575.7C769.79,-567.81 766.12,-558.3 762.74,-549.55"/>
<polygon fill="grey" stroke="grey" stroke-width="2" points="765.96,-548.17 759.1,-540.1 759.43,-550.69 765.96,-548.17"/>
</g>
<!-- 18 -->
<g id="node19" class="node">
<title>18</title>
<path fill="none" stroke="#566bd8" stroke-width="2" d="M1192.5,-396C1192.5,-396 1066.5,-396 1066.5,-396 1060.5,-396 1054.5,-390 1054.5,-384 1054.5,-384 1054.5,-372 1054.5,-372 1054.5,-366 1060.5,-360 1066.5,-360 1066.5,-360 1192.5,-360 1192.5,-360 1198.5,-360 1204.5,-366 1204.5,-372 1204.5,-372 1204.5,-384 1204.5,-384 1204.5,-390 1198.5,-396 1192.5,-396"/>
<text text-anchor="middle" x="1129.5" y="-375.5" font-family="sans" font-size="10.00">compute_profile_properties</text>
</g>
<!-- 5&#45;&gt;18 -->
<g id="edge32" class="edge">
<title>5&#45;&gt;18</title>
<path fill="none" stroke="grey" stroke-width="2" d="M807.55,-575.85C870.4,-537.42 1022.48,-444.44 1092.76,-401.46"/>
<polygon fill="grey" stroke="grey" stroke-width="2" points="1094.61,-404.44 1101.32,-396.23 1090.96,-398.46 1094.61,-404.44"/>
</g>
<!-- 6&#45;&gt;0 -->
<g id="edge10" class="edge">
<title>6&#45;&gt;0</title>
<path fill="none" stroke="grey" stroke-width="2" d="M125.22,-73.6C128.35,-73.01 131.45,-72.48 134.5,-72 374.23,-34.46 666.53,-22.95 768.39,-19.94"/>
<polygon fill="grey" stroke="grey" stroke-width="2" points="768.58,-23.44 778.48,-19.65 768.38,-16.44 768.58,-23.44"/>
</g>
<!-- 7 -->
<g id="node8" class="node">
<title>7</title>
<path fill="none" stroke="#9fd856" stroke-width="2" d="M511,-108C511,-108 344,-108 344,-108 338,-108 332,-102 332,-96 332,-96 332,-84 332,-84 332,-78 338,-72 344,-72 344,-72 511,-72 511,-72 517,-72 523,-78 523,-84 523,-84 523,-96 523,-96 523,-102 517,-108 511,-108"/>
<text text-anchor="middle" x="427.5" y="-87.5" font-family="sans" font-size="10.00">plot_surface_excess_local_with_gpr</text>
</g>
<!-- 7&#45;&gt;0 -->
<g id="edge6" class="edge">
<title>7&#45;&gt;0</title>
<path fill="none" stroke="grey" stroke-width="2" d="M519.49,-71.97C599.31,-57.18 710.81,-36.54 768.16,-25.92"/>
<polygon fill="grey" stroke="grey" stroke-width="2" points="769.02,-29.31 778.22,-24.05 767.75,-22.43 769.02,-29.31"/>
</g>
<!-- 8 -->
<g id="node9" class="node">
<title>8</title>
<path fill="none" stroke="#d86656" stroke-width="2" d="M660,-180C660,-180 545,-180 545,-180 539,-180 533,-174 533,-168 533,-168 533,-156 533,-156 533,-150 539,-144 545,-144 545,-144 660,-144 660,-144 666,-144 672,-150 672,-156 672,-156 672,-168 672,-168 672,-174 666,-180 660,-180"/>
<text text-anchor="middle" x="602.5" y="-159.5" font-family="sans" font-size="10.00">gpr_on_surface_integrals</text>
</g>
<!-- 8&#45;&gt;7 -->
<g id="edge20" class="edge">
<title>8&#45;&gt;7</title>
<path fill="none" stroke="grey" stroke-width="2" d="M559.69,-143.88C535.55,-134.22 505.22,-122.09 479.69,-111.88"/>
<polygon fill="grey" stroke="grey" stroke-width="2" points="480.76,-108.53 470.17,-108.07 478.16,-115.03 480.76,-108.53"/>
</g>
<!-- 11 -->
<g id="node12" class="node">
<title>11</title>
<path fill="none" stroke="#d88d56" stroke-width="2" d="M727.5,-108C727.5,-108 553.5,-108 553.5,-108 547.5,-108 541.5,-102 541.5,-96 541.5,-96 541.5,-84 541.5,-84 541.5,-78 547.5,-72 553.5,-72 553.5,-72 727.5,-72 727.5,-72 733.5,-72 739.5,-78 739.5,-84 739.5,-84 739.5,-96 739.5,-96 739.5,-102 733.5,-108 727.5,-108"/>
<text text-anchor="middle" x="640.5" y="-87.5" font-family="sans" font-size="10.00">plot_surface_excess_global_with_gpr</text>
</g>
<!-- 8&#45;&gt;11 -->
<g id="edge26" class="edge">
<title>8&#45;&gt;11</title>
<path fill="none" stroke="grey" stroke-width="2" d="M611.89,-143.7C616.26,-135.64 621.56,-125.89 626.4,-116.98"/>
<polygon fill="grey" stroke="grey" stroke-width="2" points="629.52,-118.56 631.21,-108.1 623.37,-115.22 629.52,-118.56"/>
</g>
<!-- 9&#45;&gt;0 -->
<g id="edge11" class="edge">
<title>9&#45;&gt;0</title>
<path fill="none" stroke="grey" stroke-width="2" d="M708.92,-215.85C727.23,-178.52 770.81,-89.69 792.62,-45.26"/>
<polygon fill="grey" stroke="grey" stroke-width="2" points="795.78,-46.75 797.04,-36.23 789.5,-43.67 795.78,-46.75"/>
</g>
<!-- 9&#45;&gt;7 -->
<g id="edge19" class="edge">
<title>9&#45;&gt;7</title>
<path fill="none" stroke="grey" stroke-width="2" d="M625.97,-218.7C593.14,-210.42 554.97,-197.99 523.5,-180 494.06,-163.17 466.33,-135.73 448.31,-115.76"/>
<polygon fill="grey" stroke="grey" stroke-width="2" points="450.92,-113.42 441.67,-108.25 445.67,-118.06 450.92,-113.42"/>
</g>
<!-- 9&#45;&gt;8 -->
<g id="edge21" class="edge">
<title>9&#45;&gt;8</title>
<path fill="none" stroke="grey" stroke-width="2" d="M676.53,-215.88C663.95,-206.89 648.37,-195.76 634.75,-186.03"/>
<polygon fill="grey" stroke="grey" stroke-width="2" points="636.74,-183.15 626.57,-180.19 632.67,-188.85 636.74,-183.15"/>
</g>
<!-- 10 -->
<g id="node11" class="node">
<title>10</title>
<path fill="none" stroke="#568ad8" stroke-width="2" d="M919.5,-180C919.5,-180 799.5,-180 799.5,-180 793.5,-180 787.5,-174 787.5,-168 787.5,-168 787.5,-156 787.5,-156 787.5,-150 793.5,-144 799.5,-144 799.5,-144 919.5,-144 919.5,-144 925.5,-144 931.5,-150 931.5,-156 931.5,-156 931.5,-168 931.5,-168 931.5,-174 925.5,-180 919.5,-180"/>
<text text-anchor="middle" x="859.5" y="-159.5" font-family="sans" font-size="10.00">plot_surface_excess_local</text>
</g>
<!-- 9&#45;&gt;10 -->
<g id="edge24" class="edge">
<title>9&#45;&gt;10</title>
<path fill="none" stroke="grey" stroke-width="2" d="M739.4,-215.88C761.13,-206.31 788.4,-194.3 811.46,-184.15"/>
<polygon fill="grey" stroke="grey" stroke-width="2" points="812.99,-187.3 820.73,-180.07 810.17,-180.89 812.99,-187.3"/>
</g>
<!-- 9&#45;&gt;11 -->
<g id="edge25" class="edge">
<title>9&#45;&gt;11</title>
<path fill="none" stroke="grey" stroke-width="2" d="M698.84,-215.91C696.55,-197.46 691.42,-167.57 680.5,-144 675.99,-134.27 669.48,-124.62 663.02,-116.27"/>
<polygon fill="grey" stroke="grey" stroke-width="2" points="665.66,-113.97 656.65,-108.4 660.22,-118.37 665.66,-113.97"/>
</g>
<!-- 12 -->
<g id="node13" class="node">
<title>12</title>
<path fill="none" stroke="#56c9d8" stroke-width="2" d="M443,-180C443,-180 316,-180 316,-180 310,-180 304,-174 304,-168 304,-168 304,-156 304,-156 304,-150 310,-144 316,-144 316,-144 443,-144 443,-144 449,-144 455,-150 455,-156 455,-156 455,-168 455,-168 455,-174 449,-180 443,-180"/>
<text text-anchor="middle" x="379.5" y="-159.5" font-family="sans" font-size="10.00">plot_surface_excess_global</text>
</g>
<!-- 9&#45;&gt;12 -->
<g id="edge27" class="edge">
<title>9&#45;&gt;12</title>
<path fill="none" stroke="grey" stroke-width="2" d="M625.64,-216.68C577.54,-206.19 514.91,-192.53 464.86,-181.62"/>
<polygon fill="grey" stroke="grey" stroke-width="2" points="465.55,-178.18 455.03,-179.47 464.06,-185.02 465.55,-178.18"/>
</g>
<!-- 10&#45;&gt;0 -->
<g id="edge9" class="edge">
<title>10&#45;&gt;0</title>
<path fill="none" stroke="grey" stroke-width="2" d="M845.75,-143.79C838.43,-133.85 829.87,-120.81 824.5,-108 816.22,-88.24 811.38,-64.44 808.66,-46.42"/>
<polygon fill="grey" stroke="grey" stroke-width="2" points="812.09,-45.73 807.26,-36.3 805.16,-46.68 812.09,-45.73"/>
</g>
<!-- 11&#45;&gt;0 -->
<g id="edge7" class="edge">
<title>11&#45;&gt;0</title>
<path fill="none" stroke="grey" stroke-width="2" d="M680.86,-71.88C707.77,-60.46 742.84,-45.58 768.92,-34.52"/>
<polygon fill="grey" stroke="grey" stroke-width="2" points="770.61,-37.61 778.45,-30.48 767.87,-31.16 770.61,-37.61"/>
</g>
<!-- 12&#45;&gt;0 -->
<g id="edge4" class="edge">
<title>12&#45;&gt;0</title>
<path fill="none" stroke="grey" stroke-width="2" d="M355.35,-143.8C331.81,-125 302.29,-94.55 322.5,-72 352.16,-38.91 660.28,-24.38 768.32,-20.28"/>
<polygon fill="grey" stroke="grey" stroke-width="2" points="768.56,-23.77 778.43,-19.91 768.3,-16.78 768.56,-23.77"/>
</g>
<!-- 13 -->
<g id="node14" class="node">
<title>13</title>
<path fill="none" stroke="#d85656" stroke-width="2" d="M919,-108C919,-108 846,-108 846,-108 840,-108 834,-102 834,-96 834,-96 834,-84 834,-84 834,-78 840,-72 846,-72 846,-72 919,-72 919,-72 925,-72 931,-78 931,-84 931,-84 931,-96 931,-96 931,-102 925,-108 919,-108"/>
<text text-anchor="middle" x="882.5" y="-87.5" font-family="sans" font-size="10.00">plot_solution_1d</text>
</g>
<!-- 13&#45;&gt;0 -->
<g id="edge1" class="edge">
<title>13&#45;&gt;0</title>
<path fill="none" stroke="grey" stroke-width="2" d="M863.47,-71.7C853.96,-63.05 842.29,-52.45 831.93,-43.03"/>
<polygon fill="grey" stroke="grey" stroke-width="2" points="834.07,-40.24 824.31,-36.1 829.36,-45.42 834.07,-40.24"/>
</g>
<!-- 14 -->
<g id="node15" class="node">
<title>14</title>
<path fill="none" stroke="#56d8c9" stroke-width="2" d="M841.5,-252C841.5,-252 811.5,-252 811.5,-252 805.5,-252 799.5,-246 799.5,-240 799.5,-240 799.5,-228 799.5,-228 799.5,-222 805.5,-216 811.5,-216 811.5,-216 841.5,-216 841.5,-216 847.5,-216 853.5,-222 853.5,-228 853.5,-228 853.5,-240 853.5,-240 853.5,-246 847.5,-252 841.5,-252"/>
<text text-anchor="middle" x="826.5" y="-231.5" font-family="sans" font-size="10.00">plot</text>
</g>
<!-- 14&#45;&gt;0 -->
<g id="edge3" class="edge">
<title>14&#45;&gt;0</title>
<path fill="none" stroke="grey" stroke-width="2" d="M853.64,-222.18C885.73,-209.12 935.45,-187.91 940.5,-180 948.83,-166.94 954.61,-93.9 939.5,-72 917.8,-40.55 874.29,-27.76 842.73,-22.56"/>
<polygon fill="grey" stroke="grey" stroke-width="2" points="842.93,-19.05 832.53,-21.07 841.92,-25.98 842.93,-19.05"/>
</g>
<!-- 15 -->
<g id="node16" class="node">
<title>15</title>
<path fill="none" stroke="#56a2d8" stroke-width="2" d="M872.5,-324C872.5,-324 740.5,-324 740.5,-324 734.5,-324 728.5,-318 728.5,-312 728.5,-312 728.5,-300 728.5,-300 728.5,-294 734.5,-288 740.5,-288 740.5,-288 872.5,-288 872.5,-288 878.5,-288 884.5,-294 884.5,-300 884.5,-300 884.5,-312 884.5,-312 884.5,-318 878.5,-324 872.5,-324"/>
<text text-anchor="middle" x="806.5" y="-303.5" font-family="sans" font-size="10.00">aggregate_volume_integrals</text>
</g>
<!-- 15&#45;&gt;14 -->
<g id="edge28" class="edge">
<title>15&#45;&gt;14</title>
<path fill="none" stroke="grey" stroke-width="2" d="M811.44,-287.7C813.67,-279.9 816.35,-270.51 818.83,-261.83"/>
<polygon fill="grey" stroke="grey" stroke-width="2" points="822.23,-262.68 821.61,-252.1 815.5,-260.76 822.23,-262.68"/>
</g>
<!-- 16&#45;&gt;15 -->
<g id="edge29" class="edge">
<title>16&#45;&gt;15</title>
<path fill="none" stroke="grey" stroke-width="2" d="M804.99,-359.7C805.21,-351.98 805.48,-342.71 805.73,-334.11"/>
<polygon fill="grey" stroke="grey" stroke-width="2" points="809.22,-334.2 806.01,-324.1 802.23,-334 809.22,-334.2"/>
</g>
<!-- 20 -->
<g id="node21" class="node">
<title>20</title>
<path fill="none" stroke="#d8c356" stroke-width="2" d="M1046.5,-324C1046.5,-324 914.5,-324 914.5,-324 908.5,-324 902.5,-318 902.5,-312 902.5,-312 902.5,-300 902.5,-300 902.5,-294 908.5,-288 914.5,-288 914.5,-288 1046.5,-288 1046.5,-288 1052.5,-288 1058.5,-294 1058.5,-300 1058.5,-300 1058.5,-312 1058.5,-312 1058.5,-318 1052.5,-324 1046.5,-324"/>
<text text-anchor="middle" x="980.5" y="-303.5" font-family="sans" font-size="10.00">compute_derived_properties</text>
</g>
<!-- 16&#45;&gt;20 -->
<g id="edge34" class="edge">
<title>16&#45;&gt;20</title>
<path fill="none" stroke="grey" stroke-width="2" d="M847.55,-359.88C871.83,-350.22 902.34,-338.09 928.01,-327.88"/>
<polygon fill="grey" stroke="grey" stroke-width="2" points="929.59,-331.02 937.59,-324.07 927,-324.51 929.59,-331.02"/>
</g>
<!-- 17 -->
<g id="node18" class="node">
<title>17</title>
<path fill="none" stroke="#68d856" stroke-width="2" d="M1284,-324C1284,-324 1151,-324 1151,-324 1145,-324 1139,-318 1139,-312 1139,-312 1139,-300 1139,-300 1139,-294 1145,-288 1151,-288 1151,-288 1284,-288 1284,-288 1290,-288 1296,-294 1296,-300 1296,-300 1296,-312 1296,-312 1296,-318 1290,-324 1284,-324"/>
<text text-anchor="middle" x="1217.5" y="-303.5" font-family="sans" font-size="10.00">aggregate_profile_properties</text>
</g>
<!-- 17&#45;&gt;0 -->
<g id="edge12" class="edge">
<title>17&#45;&gt;0</title>
<path fill="none" stroke="grey" stroke-width="2" d="M1233.96,-287.92C1242.15,-278.22 1251.2,-265.37 1255.5,-252 1277.52,-183.5 1202.57,-78.17 1194.5,-72 1139.79,-30.17 929.08,-21.36 842.73,-19.5"/>
<polygon fill="grey" stroke="grey" stroke-width="2" points="842.66,-15.99 832.6,-19.3 842.53,-22.99 842.66,-15.99"/>
</g>
<!-- 18&#45;&gt;17 -->
<g id="edge31" class="edge">
<title>18&#45;&gt;17</title>
<path fill="none" stroke="grey" stroke-width="2" d="M1151.25,-359.7C1162.34,-350.88 1175.97,-340.03 1187.99,-330.47"/>
<polygon fill="grey" stroke="grey" stroke-width="2" points="1190.35,-333.07 1196,-324.1 1185.99,-327.59 1190.35,-333.07"/>
</g>
<!-- 18&#45;&gt;20 -->
<g id="edge36" class="edge">
<title>18&#45;&gt;20</title>
<path fill="none" stroke="grey" stroke-width="2" d="M1093.05,-359.88C1072.86,-350.39 1047.58,-338.51 1026.09,-328.42"/>
<polygon fill="grey" stroke="grey" stroke-width="2" points="1027.37,-325.15 1016.83,-324.07 1024.39,-331.49 1027.37,-325.15"/>
</g>
<!-- 19 -->
<g id="node20" class="node">
<title>19</title>
<path fill="none" stroke="#56d8a2" stroke-width="2" d="M1234,-252C1234,-252 1095,-252 1095,-252 1089,-252 1083,-246 1083,-240 1083,-240 1083,-228 1083,-228 1083,-222 1089,-216 1095,-216 1095,-216 1234,-216 1234,-216 1240,-216 1246,-222 1246,-228 1246,-228 1246,-240 1246,-240 1246,-246 1240,-252 1234,-252"/>
<text text-anchor="middle" x="1164.5" y="-231.5" font-family="sans" font-size="10.00">aggregate_derived_properties</text>
</g>
<!-- 19&#45;&gt;0 -->
<g id="edge8" class="edge">
<title>19&#45;&gt;0</title>
<path fill="none" stroke="grey" stroke-width="2" d="M1172.81,-215.79C1177.24,-205.63 1182.24,-192.38 1184.5,-180 1193.2,-132.33 1204.79,-105.21 1169.5,-72 1122.84,-28.09 925.67,-20.45 842.62,-19.2"/>
<polygon fill="grey" stroke="grey" stroke-width="2" points="842.66,-15.7 832.62,-19.08 842.57,-22.7 842.66,-15.7"/>
</g>
<!-- 20&#45;&gt;19 -->
<g id="edge33" class="edge">
<title>20&#45;&gt;19</title>
<path fill="none" stroke="grey" stroke-width="2" d="M1025.51,-287.88C1051,-278.18 1083.07,-265.98 1109.98,-255.74"/>
<polygon fill="grey" stroke="grey" stroke-width="2" points="1111.53,-258.9 1119.63,-252.07 1109.04,-252.35 1111.53,-258.9"/>
</g>
<!-- 23 -->
<g id="node24" class="node">
<title>23</title>
<path fill="none" stroke="#59d856" stroke-width="2" d="M1053,-252C1053,-252 896,-252 896,-252 890,-252 884,-246 884,-240 884,-240 884,-228 884,-228 884,-222 890,-216 896,-216 896,-216 1053,-216 1053,-216 1059,-216 1065,-222 1065,-228 1065,-228 1065,-240 1065,-240 1065,-246 1059,-252 1053,-252"/>
<text text-anchor="middle" x="974.5" y="-231.5" font-family="sans" font-size="10.00">compute_comparative_properties</text>
</g>
<!-- 20&#45;&gt;23 -->
<g id="edge39" class="edge">
<title>20&#45;&gt;23</title>
<path fill="none" stroke="grey" stroke-width="2" d="M979.02,-287.7C978.36,-279.98 977.56,-270.71 976.82,-262.11"/>
<polygon fill="grey" stroke="grey" stroke-width="2" points="980.31,-261.77 975.97,-252.1 973.33,-262.37 980.31,-261.77"/>
</g>
<!-- 21&#45;&gt;20 -->
<g id="edge35" class="edge">
<title>21&#45;&gt;20</title>
<path fill="none" stroke="grey" stroke-width="2" d="M969.96,-359.7C971.5,-351.98 973.36,-342.71 975.08,-334.11"/>
<polygon fill="grey" stroke="grey" stroke-width="2" points="978.55,-334.6 977.08,-324.1 971.69,-333.22 978.55,-334.6"/>
</g>
<!-- 22 -->
<g id="node23" class="node">
<title>22</title>
<path fill="none" stroke="#56d86b" stroke-width="2" d="M1163.5,-180C1163.5,-180 999.5,-180 999.5,-180 993.5,-180 987.5,-174 987.5,-168 987.5,-168 987.5,-156 987.5,-156 987.5,-150 993.5,-144 999.5,-144 999.5,-144 1163.5,-144 1163.5,-144 1169.5,-144 1175.5,-150 1175.5,-156 1175.5,-156 1175.5,-168 1175.5,-168 1175.5,-174 1169.5,-180 1163.5,-180"/>
<text text-anchor="middle" x="1081.5" y="-159.5" font-family="sans" font-size="10.00">aggregate_comparative_properties</text>
</g>
<!-- 22&#45;&gt;0 -->
<g id="edge13" class="edge">
<title>22&#45;&gt;0</title>
<path fill="none" stroke="grey" stroke-width="2" d="M1116.67,-143.94C1130.48,-135.25 1144.85,-123.26 1152.5,-108 1159.67,-93.7 1162.92,-84.14 1152.5,-72 1112.89,-25.87 924.21,-19.45 842.91,-18.87"/>
<polygon fill="grey" stroke="grey" stroke-width="2" points="842.65,-15.36 832.63,-18.82 842.61,-22.36 842.65,-15.36"/>
</g>
<!-- 24 -->
<g id="node25" class="node">
<title>24</title>
<path fill="none" stroke="#56d88a" stroke-width="2" d="M1131.5,-108C1131.5,-108 999.5,-108 999.5,-108 993.5,-108 987.5,-102 987.5,-96 987.5,-96 987.5,-84 987.5,-84 987.5,-78 993.5,-72 999.5,-72 999.5,-72 1131.5,-72 1131.5,-72 1137.5,-72 1143.5,-78 1143.5,-84 1143.5,-84 1143.5,-96 1143.5,-96 1143.5,-102 1137.5,-108 1131.5,-108"/>
<text text-anchor="middle" x="1065.5" y="-87.5" font-family="sans" font-size="10.00">generate_comparative_plots</text>
</g>
<!-- 22&#45;&gt;24 -->
<g id="edge40" class="edge">
<title>22&#45;&gt;24</title>
<path fill="none" stroke="grey" stroke-width="2" d="M1077.54,-143.7C1075.78,-135.98 1073.66,-126.71 1071.7,-118.11"/>
<polygon fill="grey" stroke="grey" stroke-width="2" points="1075.05,-117.07 1069.41,-108.1 1068.23,-118.63 1075.05,-117.07"/>
</g>
<!-- 23&#45;&gt;22 -->
<g id="edge38" class="edge">
<title>23&#45;&gt;22</title>
<path fill="none" stroke="grey" stroke-width="2" d="M1000.68,-215.88C1014.54,-206.81 1031.74,-195.55 1046.71,-185.76"/>
<polygon fill="grey" stroke="grey" stroke-width="2" points="1048.77,-188.59 1055.22,-180.19 1044.94,-182.74 1048.77,-188.59"/>
</g>
<!-- 24&#45;&gt;0 -->
<g id="edge5" class="edge">
<title>24&#45;&gt;0</title>
<path fill="none" stroke="grey" stroke-width="2" d="M1002.23,-71.97C952.1,-58.47 883.81,-40.08 842.28,-28.9"/>
<polygon fill="grey" stroke="grey" stroke-width="2" points="843.15,-25.51 832.58,-26.29 841.33,-32.27 843.15,-25.51"/>
</g>
</g>
</svg>
